<svg width="365" height="69" viewBox="0 0 365 69" fill="none" xmlns="http://www.w3.org/2000/svg">
<path d="M182.498 25.875L197.578 31.0765L205.602 44.2472L202.816 59.2244L190.522 69H174.473L162.18 59.2244L159.393 44.2472L167.417 31.0765L182.498 25.875Z" fill="#F48C65"/>
<path d="M167.406 31.0248L205.591 44.1955L174.462 68.9483L167.406 31.0248Z" fill="#F7AD91"/>
<path d="M182.498 25.875L202.816 59.2244H162.18L182.498 25.875Z" fill="#FAC8B6"/>
<path d="M172.646 59.2503L170.196 46.0814L177.278 34.4579L190.478 39.011L197.547 50.613L186.684 59.2503H172.646Z" fill="#FFEEE8"/>
<path d="M271.467 11.1416L262.225 2.51658L263.859 0.99188L271.467 8.09218L279.092 0.976549L280.725 2.50125L271.467 11.1416Z" fill="#F48C65"/>
<path d="M264.494 16.5169V8.97H262.184V16.5169H264.494Z" fill="#F48C65"/>
<path d="M280.668 16.5169V8.97H278.357V16.5169H280.668Z" fill="#F48C65"/>
<path d="M230.992 1.42312H214.819V3.57937H230.992V1.42312Z" fill="#F48C65"/>
<path d="M221.75 6.81375V16.5169H224.061V6.81375H221.75Z" fill="#F48C65"/>
<path d="M241.389 1.42312V16.5169H239.079V1.42312H241.389Z" fill="#F48C65"/>
<path d="M252.942 16.5169H244.855V14.3606H252.942V16.5169Z" fill="#F48C65"/>
<path d="M244.855 3.57937H252.942V1.42312H244.855V3.57937Z" fill="#F48C65"/>
<path d="M250.631 10.0481H244.855V7.89188H250.631V10.0481Z" fill="#F48C65"/>
<path d="M343.442 1.42312L353.056 16.9627L355.057 15.8846L345.443 0.345L343.442 1.42312Z" fill="#F48C65"/>
<path d="M341.772 7.03668L336.119 16.1747L338.12 17.2529L340.438 13.5054H346.516V11.3492H341.772L343.773 8.1148L341.772 7.03668Z" fill="#F48C65"/>
<path d="M325.722 16.5169H328.032V14.3606H325.722V16.5169Z" fill="#F48C65"/>
<path d="M365 16.5169H362.69V14.3606H365V16.5169Z" fill="#F48C65"/>
<path d="M303.772 1.42312V16.5169H301.462V1.42312H303.772Z" fill="#F48C65"/>
<path d="M310.399 3.57937H307.238V1.42312H311.001L311.261 1.55658C313.291 2.59897 315.931 4.62043 316.727 7.32295C317.14 8.72235 317.041 10.2589 316.17 11.8263C315.314 13.3671 313.747 14.8787 311.333 16.3427L311.046 16.5169H307.238V14.3606H310.357C312.387 13.0864 313.533 11.8877 314.119 10.8338C314.716 9.75877 314.761 8.78191 314.5 7.89479C313.974 6.11035 312.146 4.53192 310.399 3.57937Z" fill="#F48C65"/>
<path d="M104.735 16.6177L95.1214 1.07812L97.1224 0L106.736 15.5396L104.735 16.6177Z" fill="#F48C65"/>
<path d="M87.7982 15.8297L93.4514 6.69168L95.4523 7.7698L93.4514 11.0042H98.1953V13.1604H92.1174L89.7991 16.9079L87.7982 15.8297Z" fill="#F48C65"/>
<path d="M23.1048 1.30105V16.3948H25.4153V1.30105H23.1048Z" fill="#F48C65"/>
<path d="M65.8486 1.30105H82.022V3.4573H65.8486V1.30105Z" fill="#F48C65"/>
<path d="M72.78 16.3948V6.69168H75.0905V16.3948H72.78Z" fill="#F48C65"/>
<path d="M179.062 9.02035L186.745 2.8743L185.242 1.23716L177.155 7.70591L177.214 7.76979H176.752V16.3948H179.062V9.02035Z" fill="#F48C65"/>
<path d="M170.637 1.29338L175.258 5.60588L173.624 7.13058L169.003 2.81808L170.637 1.29338Z" fill="#F48C65"/>
<path d="M160.962 3.39833C160.698 3.02887 160.228 2.52857 159.608 2.11116C158.987 1.69364 158.128 1.30105 157.112 1.30105V3.4573C157.483 3.4573 157.875 3.60377 158.256 3.86008C158.637 4.1165 158.918 4.4248 159.039 4.5944L160.962 3.39833Z" fill="#F48C65"/>
<path d="M149.927 2.84861C150.549 2.2779 151.265 1.79888 151.909 1.44791L153.074 3.31044C152.563 3.58837 152.008 3.96287 151.547 4.38606C151.075 4.81883 150.77 5.24003 150.647 5.60241C150.541 5.91519 150.561 6.19123 150.785 6.50143C151.032 6.84387 151.585 7.29943 152.729 7.7698H157.335L157.542 7.84691C158.329 8.14072 159.21 8.55712 159.981 9.0747C160.728 9.57702 161.492 10.2553 161.865 11.1099C162.281 12.0634 162.148 13.101 161.346 14.0386C160.61 14.8985 159.343 15.6453 157.542 16.3177L156.683 14.3157C158.348 13.6943 159.175 13.1204 159.54 12.6933C159.839 12.3439 159.814 12.1281 159.725 11.9227C159.592 11.6183 159.237 11.2319 158.631 10.8246C158.106 10.4721 157.482 10.1631 156.884 9.92605H152.26L152.047 9.84312C150.559 9.26445 149.488 8.56333 148.87 7.70737C148.213 6.79906 148.146 5.82851 148.444 4.95087C148.726 4.12282 149.316 3.40974 149.927 2.84861Z" fill="#F48C65"/>
<path d="M149.419 15.5847C148.798 15.1673 148.329 14.667 148.065 14.2975L149.987 13.1015C150.108 13.2711 150.389 13.5794 150.77 13.8358C151.151 14.0921 151.544 14.2386 151.914 14.2386V16.3948C150.898 16.3948 150.039 16.0022 149.419 15.5847Z" fill="#F48C65"/>
<path d="M57.7619 16.3948V1.30105H55.4515V16.3948H57.7619Z" fill="#F48C65"/>
<path d="M114.369 1.30105V16.3948H116.679V1.30105H114.369Z" fill="#F48C65"/>
<path d="M128.232 14.2386H120.145V16.3948H128.232V14.2386Z" fill="#F48C65"/>
<path d="M42.7438 2.91824L46.2095 6.15261L47.8433 4.62791L44.3776 1.39354L42.7438 2.91824Z" fill="#F48C65"/>
<path d="M39.5656 14.4155C38.0885 13.5103 36.4172 11.8808 35.9447 9.96701C35.5075 8.19608 36.0222 5.85079 39.6398 3.23093L38.2233 1.52742C34.0996 4.51381 33.0015 7.64899 33.6932 10.4511C34.3497 13.1103 36.549 15.1465 38.2975 16.2179L39.5656 14.4155Z" fill="#F48C65"/>
<path d="M42.7438 14.0229H45.0543V9.92605H40.4333V7.7698H47.3648V16.1792H42.7438V14.0229Z" fill="#F48C65"/>
<path d="M2.31048 16.3948V1.30105H0V16.3948H2.31048Z" fill="#F48C65"/>
<path d="M5.77619 3.4573H8.93735C10.6845 4.40985 12.5119 5.98828 13.0378 7.77271C13.2993 8.65983 13.2541 9.63669 12.6568 10.7118C12.0713 11.7656 10.9252 12.9643 8.89466 14.2386H5.77619V16.3948H9.58437L9.8715 16.2206C12.2849 14.7567 13.8519 13.245 14.7079 11.7043C15.5788 10.1368 15.678 8.60028 15.2656 7.20087C14.4691 4.49836 11.8295 2.4769 9.79864 1.43451L9.53864 1.30105H5.77619V3.4573Z" fill="#F48C65"/>
<path d="M206.716 3.47728C206.452 3.10781 205.982 2.60752 205.362 2.19011C204.742 1.77259 203.883 1.38 202.867 1.38V3.53625C203.237 3.53625 203.63 3.68272 204.011 3.93903C204.392 4.19545 204.673 4.50375 204.794 4.67335L206.716 3.47728Z" fill="#F48C65"/>
<path d="M195.681 2.92756C196.303 2.35685 197.019 1.87783 197.664 1.52686L198.828 3.38939C198.318 3.66732 197.763 4.04182 197.301 4.46501C196.83 4.89778 196.524 5.31898 196.401 5.68136C196.295 5.99414 196.315 6.27017 196.539 6.58038C196.787 6.92282 197.34 7.37838 198.483 7.84875H203.089L203.296 7.92586C204.083 8.21967 204.965 8.63607 205.735 9.15365C206.483 9.65597 207.247 10.3342 207.619 11.1888C208.035 12.1424 207.902 13.1799 207.1 14.1176C206.364 14.9775 205.097 15.7242 203.296 16.3966L202.438 14.3946C204.102 13.7733 204.929 13.1993 205.294 12.7722C205.593 12.4228 205.569 12.2071 205.479 12.0016C205.346 11.6972 204.991 11.3109 204.385 10.9035C203.86 10.551 203.236 10.242 202.638 10.005H198.015L197.802 9.92207C196.314 9.3434 195.243 8.64228 194.624 7.78631C193.967 6.87801 193.901 5.90746 194.199 5.02982C194.48 4.20177 195.07 3.48869 195.681 2.92756Z" fill="#F48C65"/>
<path d="M195.173 15.6636C194.553 15.2462 194.083 14.7459 193.819 14.3765L195.741 13.1804C195.863 13.35 196.144 13.6583 196.525 13.9147C196.905 14.171 197.298 14.3175 197.668 14.3175V16.4737C196.652 16.4737 195.794 16.0812 195.173 15.6636Z" fill="#F48C65"/>
</svg>
