<svg width="385" height="360" viewBox="0 0 385 360" fill="none" xmlns="http://www.w3.org/2000/svg">
<path d="M171 0L225.174 20.0221L254 70.7197L243.989 128.371L199.826 166H142.174L98.011 128.371L88 70.7197L116.826 20.0221L171 0Z" fill="#F48C65"/>
<path d="M116.786 19.8231L253.96 70.5207L142.135 165.801L116.786 19.8231Z" fill="#F7AD91"/>
<path d="M171 0L243.989 128.371H98.011L171 0Z" fill="#FAC8B6"/>
<path d="M135.611 128.471L126.808 77.78L152.247 33.0381L199.668 50.5641L225.061 95.2234L186.04 128.471H135.611Z" fill="#FFEEE8"/>
<path d="M171 0L225.174 20.0221L254 70.7197L243.989 128.371L199.826 166H142.174L98.011 128.371L88 70.7197L116.826 20.0221L171 0Z" fill="#F48C65"/>
<path d="M116.786 19.8231L253.96 70.5207L142.135 165.801L116.786 19.8231Z" fill="#F7AD91"/>
<path d="M171 0L243.989 128.371H98.011L171 0Z" fill="#FAC8B6"/>
<path d="M135.611 128.471L126.808 77.78L152.247 33.0381L199.668 50.5641L225.061 95.2234L186.04 128.471H135.611Z" fill="#FFEEE8"/>
<path fill-rule="evenodd" clip-rule="evenodd" d="M246.481 310.257C244.694 310.028 242.892 309.914 241.077 309.914C240.281 309.883 239.471 309.857 238.648 309.837C237.287 309.774 235.926 309.721 234.564 309.675C234.274 310.338 233.978 310.998 233.678 311.656C233.576 311.864 233.454 312.113 233.313 312.403C233.108 312.818 232.916 313.227 232.738 313.632C232.56 314.026 232.499 314.29 232.555 314.425C232.621 314.56 232.902 314.456 233.398 314.114C233.547 314 233.683 313.886 233.805 313.772C234.198 313.481 234.586 313.207 234.97 312.947C235.307 312.699 235.681 312.564 236.093 312.543C237.076 312.47 237.628 312.963 237.749 314.021C237.796 314.446 237.782 314.866 237.707 315.281C237.633 315.695 237.544 316.105 237.441 316.509L237.385 316.852C237.216 317.557 237.258 317.961 237.511 318.065C237.773 318.168 238.133 318.111 238.592 317.894C239.06 317.676 239.532 317.412 240.01 317.1C240.074 317.063 240.138 317.028 240.199 316.993C240.241 316.969 240.282 316.945 240.323 316.923C240.591 316.513 240.894 316.127 241.231 315.763C242.12 314.85 243.107 314.119 244.193 313.57C244.773 313.248 245.382 313.124 246.018 313.196C246.654 313.238 247.038 313.637 247.169 314.394C247.225 314.622 247.174 314.824 247.015 315.001C246.809 315.208 246.57 315.255 246.299 315.141C246.28 315.141 246.252 315.135 246.214 315.125C246.186 315.115 246.163 315.099 246.144 315.078C245.873 314.664 245.597 314.492 245.316 314.565C245.045 314.627 244.754 314.762 244.446 314.969C243.004 315.903 241.933 317.204 241.231 318.874C241.193 318.946 241.17 319.029 241.161 319.122C241.151 319.205 241.175 319.273 241.231 319.325C241.399 319.387 241.587 319.377 241.792 319.294C241.998 319.2 242.204 319.071 242.41 318.905C242.616 318.728 242.789 318.583 242.93 318.469L242.958 318.423C243.641 317.79 244.31 317.142 244.965 316.478C245.255 316.136 245.615 315.944 246.046 315.903C246.664 315.903 246.921 316.209 246.818 316.82C246.762 317.049 246.701 317.277 246.636 317.505C246.392 318.49 246.383 319.071 246.608 319.247C246.832 319.413 247.174 319.413 247.632 319.247C248.1 319.071 248.563 318.744 249.022 318.267C249.244 318.036 249.449 317.816 249.637 317.606C249.685 317.479 249.733 317.352 249.78 317.225C250.005 316.613 250.239 315.986 250.482 315.343C250.501 315.281 250.533 315.213 250.58 315.141C250.702 314.798 250.847 314.467 251.015 314.145C251.09 314.031 251.231 313.958 251.437 313.927C251.643 313.896 251.82 313.927 251.97 314.021C252.157 314.155 252.251 314.358 252.251 314.627C252.251 314.762 252.227 314.902 252.181 315.047C252.143 315.161 252.12 315.275 252.11 315.389C252.101 315.504 252.134 315.618 252.209 315.732C252.358 315.752 252.489 315.732 252.602 315.669C252.714 315.597 252.822 315.514 252.925 315.421C253.028 315.327 253.149 315.26 253.29 315.218C253.374 315.167 253.458 315.12 253.542 315.078C253.992 314.85 254.436 314.653 254.876 314.487C255.447 314.29 256.013 314.337 256.575 314.627C256.818 314.793 257 314.995 257.122 315.234C257.244 315.472 257.337 315.726 257.403 315.996C257.468 316.203 257.637 316.312 257.908 316.323C258.189 316.333 258.498 316.297 258.835 316.214C259.181 316.12 259.494 316.027 259.775 315.934C260.009 315.861 260.178 315.815 260.281 315.794C260.503 315.736 260.727 315.711 260.955 315.719C261.833 314.827 262.806 314.11 263.874 313.57C264.455 313.248 265.063 313.124 265.699 313.196C266.336 313.238 266.719 313.637 266.85 314.394C266.907 314.622 266.855 314.824 266.696 315.001C266.49 315.208 266.251 315.255 265.98 315.141C265.961 315.141 265.933 315.135 265.896 315.125C265.868 315.115 265.844 315.099 265.826 315.078C265.554 314.664 265.278 314.492 264.997 314.565C264.726 314.627 264.436 314.762 264.127 314.969C262.686 315.903 261.614 317.204 260.912 318.874C260.875 318.946 260.851 319.029 260.842 319.122C260.833 319.205 260.856 319.273 260.912 319.325C261.081 319.387 261.268 319.377 261.474 319.294C261.68 319.2 261.886 319.071 262.091 318.905C262.297 318.728 262.471 318.583 262.611 318.469L262.639 318.423C263.322 317.79 263.991 317.142 264.646 316.478C264.937 316.136 265.297 315.944 265.727 315.903C266.345 315.903 266.602 316.209 266.499 316.82C266.443 317.049 266.382 317.277 266.317 317.505C266.074 318.49 266.064 319.071 266.289 319.247C266.513 319.413 266.855 319.413 267.314 319.247C267.782 319.071 268.245 318.744 268.703 318.267C268.781 318.186 268.857 318.106 268.93 318.028C269.563 316.737 270.203 315.442 270.851 314.145C270.87 314.124 270.879 314.104 270.879 314.083C271.001 313.813 271.146 313.564 271.314 313.336C271.502 313.108 271.717 313.015 271.96 313.056C272.204 313.098 272.367 313.259 272.452 313.538C272.555 313.901 272.643 314.109 272.718 314.161C272.793 314.202 272.962 314.166 273.224 314.052C273.785 313.824 274.333 313.663 274.866 313.57C275.4 313.476 275.835 313.502 276.172 313.647C276.518 313.782 276.649 314.207 276.565 314.923C276.48 315.638 276.176 316.105 275.652 316.323C275.128 316.54 274.955 316.255 275.133 315.467C275.32 314.679 275.002 314.482 274.178 314.876C273.355 315.26 272.676 315.747 272.143 316.338C271.319 317.272 270.589 318.277 269.953 319.356C269.887 319.449 269.836 319.527 269.798 319.589C269.611 319.89 269.424 320.175 269.237 320.445C269.115 320.631 268.975 320.75 268.816 320.802C268.647 320.844 268.479 320.849 268.31 320.818C268.151 320.797 268.03 320.73 267.945 320.616C267.861 320.502 267.852 320.367 267.917 320.211C267.926 320.188 267.934 320.165 267.943 320.142C265.773 320.978 264.664 320.441 264.618 318.531C263.711 319.402 263.102 319.936 262.793 320.134C262.054 320.621 261.254 320.839 260.393 320.787C259.757 320.745 259.326 320.533 259.101 320.149C258.867 319.755 258.886 319.226 259.158 318.563C259.406 317.93 259.718 317.338 260.094 316.789C260.011 316.821 259.928 316.852 259.845 316.883C259.209 317.111 258.559 317.354 257.894 317.614C257.398 317.769 257.01 318.111 256.729 318.64C256.27 319.459 255.695 320.097 255.002 320.553C254.319 321.01 253.622 321.336 252.911 321.533C252.199 321.72 251.568 321.839 251.015 321.891C250.473 321.933 250.122 321.943 249.963 321.922H249.892C249.668 322.078 249.443 322.384 249.219 322.84C248.994 323.296 248.797 323.706 248.629 324.069C248.592 324.162 248.563 324.245 248.545 324.318C247.618 326.371 246.701 328.424 245.793 330.477L244.249 333.899C244.081 334.303 243.884 334.692 243.66 335.066C243.454 335.356 243.196 335.413 242.887 335.237C242.682 335.071 242.63 334.843 242.733 334.552C242.836 334.252 242.948 333.951 243.07 333.65C244.68 329.43 246.388 325.256 248.194 321.129C248.372 320.724 248.547 320.316 248.719 319.905C248.603 319.976 248.484 320.042 248.362 320.102C246.126 320.994 244.984 320.471 244.937 318.531C244.029 319.402 243.421 319.936 243.112 320.134C242.373 320.621 241.573 320.839 240.712 320.787C240.075 320.745 239.645 320.533 239.42 320.149C239.189 319.761 239.204 319.242 239.464 318.591C239.421 318.614 239.378 318.635 239.336 318.656C238.859 318.894 238.292 319.138 237.637 319.387C236.664 319.708 236.037 319.636 235.756 319.169C235.485 318.703 235.443 318.054 235.63 317.225C235.892 316.043 236.042 315.177 236.079 314.627C236.126 314.078 235.962 313.891 235.588 314.067C235.223 314.233 234.553 314.798 233.58 315.763C232.223 317.059 231.063 318.542 230.099 320.211C229.977 320.439 229.827 320.626 229.65 320.771C229.472 320.916 229.252 320.989 228.99 320.989C228.737 320.989 228.555 320.916 228.442 320.771C228.33 320.626 228.325 320.429 228.428 320.18C228.542 319.902 228.656 319.625 228.771 319.348C228.246 319.839 227.724 320.251 227.207 320.585C226.009 321.362 224.722 321.622 223.346 321.362C222.062 321.109 221.488 320.191 221.627 318.608C221.171 319.075 220.692 319.506 220.188 319.9C219.168 320.699 218.115 321.16 217.029 321.285C215.953 321.409 215.303 320.756 215.078 319.325C214.91 317.904 215.686 315.011 217.408 310.645C217.556 310.271 217.701 309.902 217.844 309.538C217.264 309.548 216.683 309.559 216.103 309.572H215.176C214.765 309.541 214.465 309.546 214.278 309.588C214.091 309.619 213.941 309.733 213.829 309.93C213.716 310.117 213.585 310.428 213.436 310.863C213.333 311.112 213.211 311.423 213.071 311.796C211.817 314.824 210.665 317.904 209.617 321.036C208.934 323.058 208.405 325.132 208.031 327.257C207.891 327.921 207.839 328.564 207.877 329.186C207.923 329.819 208.181 330.384 208.649 330.882C208.714 330.933 208.738 330.996 208.719 331.068C208.7 331.151 208.658 331.224 208.592 331.286C208.527 331.359 208.457 331.405 208.382 331.426C207.268 331.613 206.599 331.172 206.374 330.104C206.243 329.502 206.22 328.885 206.304 328.253V328.144C206.388 327.055 206.562 325.972 206.824 324.893C207.095 323.825 207.395 322.752 207.722 321.673C208.78 318.438 209.945 315.244 211.218 312.092C211.283 311.957 211.335 311.822 211.372 311.688C211.438 311.532 211.508 311.371 211.583 311.205C211.686 310.977 211.779 310.749 211.863 310.521C211.948 310.293 211.98 310.054 211.962 309.805C211.859 309.712 211.756 309.655 211.653 309.634C211.55 309.614 211.447 309.614 211.344 309.634H211.274C210.394 309.634 209.51 309.645 208.621 309.665H207.848C207.521 309.686 207.245 309.8 207.02 310.008C206.796 310.215 206.58 310.469 206.374 310.77L205.56 311.921C204.409 313.549 203.249 315.161 202.079 316.758C200.347 319.081 198.537 321.321 196.646 323.478C194.765 325.635 192.767 327.657 190.652 329.544C187.994 331.97 185.172 334.106 182.187 335.952C177.62 338.669 172.833 339.955 167.826 339.81C163.109 339.696 158.856 338.285 155.065 335.579C153.998 334.822 153.053 333.909 152.23 332.841C151.677 332.084 151.242 331.265 150.924 330.384C150.597 329.513 150.433 328.564 150.433 327.537C150.48 326.303 150.737 325.163 151.205 324.115C151.663 323.058 152.305 322.099 153.128 321.238C154.26 320.025 155.505 318.998 156.862 318.158C158.182 317.308 159.543 316.566 160.947 315.934C162.342 315.291 163.75 314.721 165.173 314.223C167.475 313.404 169.801 312.714 172.15 312.154C174.499 311.594 176.857 311.117 179.225 310.723C184.84 309.862 190.469 309.292 196.113 309.012C198.995 308.815 201.868 308.717 204.732 308.717C205.518 308.737 206.126 308.369 206.557 307.612C207.315 306.43 208.078 305.243 208.845 304.05C209.326 303.312 209.804 302.569 210.278 301.821H203.892V301.084H207.214V272.234L197.953 301.821H197.414L188.153 272.418V301.084H191.475V301.821H184.166V301.084H187.488V271.636H184.166V270.9H191.849L199.49 294.551L206.882 270.9H214.565V271.636H211.242V300.287C211.615 299.688 211.986 299.087 212.355 298.482C217.708 289.626 222.836 280.626 227.74 271.48C228.152 270.702 228.555 269.914 228.948 269.115C229.135 268.711 229.331 268.301 229.537 267.887C229.781 267.358 230.169 267.062 230.702 267C230.993 267 231.203 267.093 231.334 267.28C231.474 267.456 231.493 267.695 231.39 267.995C231.287 268.244 231.17 268.483 231.039 268.711C230.244 270.287 229.537 271.884 228.92 273.502C228.686 274.072 228.456 274.632 228.232 275.182C226.07 280.377 223.899 285.577 221.718 290.783C220.052 294.796 218.372 298.819 216.678 302.853C216.192 304.045 215.71 305.232 215.232 306.415C215.13 306.663 215.027 306.902 214.924 307.13C214.905 307.182 214.886 307.239 214.867 307.301C214.802 307.467 214.746 307.633 214.699 307.799C214.662 307.954 214.676 308.11 214.741 308.266C214.882 308.38 215.045 308.442 215.232 308.452C215.42 308.463 215.593 308.468 215.752 308.468C215.883 308.447 216 308.437 216.103 308.437C216.822 308.456 217.546 308.457 218.273 308.441C219.593 305.06 220.666 302.218 221.493 299.913C221.578 299.664 221.704 299.446 221.872 299.26C222.097 299.011 222.364 298.954 222.673 299.089C222.776 299.14 222.879 299.223 222.981 299.337C223.084 299.451 223.117 299.654 223.08 299.944C221.845 303.19 220.787 306.023 219.908 308.443C220.491 308.448 221.076 308.456 221.662 308.468C222.768 308.489 223.874 308.512 224.98 308.535C225.088 308.239 225.199 307.942 225.312 307.643C225.377 307.488 225.438 307.332 225.494 307.177C225.597 306.918 225.7 306.653 225.803 306.384C225.953 305.927 225.789 305.689 225.312 305.668H224.105C223.964 305.689 223.819 305.709 223.669 305.73C223.426 305.751 223.183 305.761 222.939 305.761C222.705 305.761 222.485 305.694 222.28 305.559C222.223 305.538 222.177 305.502 222.139 305.45C222.111 305.388 222.097 305.321 222.097 305.248C222.116 305.207 222.144 305.16 222.181 305.108C222.228 305.046 222.284 305.004 222.35 304.984C222.556 304.89 222.771 304.823 222.995 304.781C223.576 304.75 224.151 304.724 224.722 304.704H225.312C225.686 304.704 225.962 304.688 226.14 304.657C226.327 304.626 226.477 304.517 226.589 304.33C226.702 304.144 226.833 303.859 226.982 303.475C227.067 303.267 227.169 303.039 227.291 302.79C227.427 302.47 227.564 302.147 227.7 301.821H225.066V301.084H228.005C228.076 300.912 228.147 300.74 228.218 300.566C228.358 300.224 228.503 299.892 228.653 299.571C228.774 299.249 228.966 299 229.228 298.824C229.26 298.807 229.291 298.793 229.322 298.78L237.732 270.486H238.23L247.325 301.084H250.938V301.821H238.77V301.084H243.047L240.348 292.204H232.001L229.997 299.007C230.003 299.023 230.009 299.04 230.015 299.057C230.052 299.151 230.071 299.234 230.071 299.306C230.071 299.711 229.977 300.11 229.79 300.504C229.752 300.587 229.71 300.685 229.664 300.8C229.633 300.894 229.601 300.989 229.569 301.084H234.285V301.821H229.312C229.298 301.859 229.284 301.897 229.271 301.935C228.999 302.64 228.742 303.361 228.498 304.097C228.433 304.232 228.428 304.351 228.484 304.455C228.55 304.558 228.643 304.61 228.765 304.61C229.43 304.631 230.08 304.641 230.716 304.641H231.699C232.729 304.662 233.14 304.823 232.934 305.124C232.794 305.3 232.64 305.404 232.471 305.435C232.312 305.455 232.148 305.45 231.98 305.419H231.671C230.623 305.492 229.584 305.538 228.555 305.559C228.077 305.559 227.759 305.798 227.6 306.275C227.432 306.731 227.268 307.187 227.109 307.643C226.986 307.958 226.868 308.268 226.753 308.574C228.934 308.622 231.115 308.674 233.298 308.729C233.937 307.206 234.57 305.683 235.195 304.159C235.625 303.153 236.046 302.148 236.458 301.142C236.495 301.059 236.538 300.971 236.584 300.877C236.622 300.763 236.664 300.649 236.711 300.535C236.767 300.421 236.828 300.297 236.893 300.162C236.949 300.048 237.052 299.954 237.202 299.882C237.361 299.809 237.516 299.763 237.665 299.742C237.824 299.721 237.946 299.731 238.03 299.773C238.152 299.866 238.217 299.965 238.227 300.068C238.246 300.172 238.231 300.281 238.185 300.395C238.166 300.416 238.157 300.452 238.157 300.504C237.969 301.116 237.773 301.707 237.567 302.277C236.748 304.464 235.877 306.629 234.956 308.772C236.369 308.809 237.782 308.848 239.195 308.888C241.114 308.929 243.018 309.017 244.909 309.152C245.077 309.173 245.255 309.183 245.442 309.183H245.779C246.023 309.183 246.257 309.209 246.481 309.261C246.715 309.303 246.935 309.391 247.141 309.525C247.178 309.557 247.206 309.608 247.225 309.681C247.244 309.743 247.244 309.795 247.225 309.837C247.225 309.909 247.197 309.977 247.141 310.039C247.094 310.091 247.052 310.127 247.015 310.148C246.846 310.22 246.668 310.257 246.481 310.257ZM226.41 309.504C228.581 309.523 230.752 309.563 232.92 309.625C232.002 311.796 231.071 313.977 230.127 316.167C230.039 316.367 229.952 316.568 229.865 316.768C228.304 318.55 226.805 319.63 225.368 320.009C223.768 320.413 223.164 319.75 223.557 318.018C223.735 317.064 223.978 316.131 224.287 315.218C224.783 313.818 225.298 312.424 225.831 311.034C226.024 310.52 226.217 310.009 226.41 309.504ZM219.52 309.514C221.227 309.494 222.933 309.487 224.637 309.493C224.605 309.587 224.572 309.681 224.54 309.774C223.8 311.734 223.07 313.704 222.35 315.685C222.203 316.116 222.071 316.552 221.955 316.994C221.937 317.013 221.919 317.033 221.901 317.054C221.76 317.22 221.405 317.572 220.834 318.111C220.272 318.64 219.467 319.164 218.419 319.682C217.38 320.191 216.791 319.936 216.65 318.92C216.555 318.231 217.512 315.095 219.52 309.514ZM210.038 305.295C210.786 304.143 211.525 302.985 212.253 301.821H214.565V301.084H212.711C213.628 299.606 214.53 298.116 215.415 296.615C217.146 293.681 218.868 290.741 220.581 287.796C220.787 287.433 221.002 287.07 221.227 286.707C221.264 286.614 221.316 286.521 221.381 286.427C221.643 286.002 221.69 286.054 221.521 286.583C221.362 287.101 221.082 287.884 220.679 288.932C220.277 289.979 219.832 291.094 219.346 292.276C218.868 293.448 218.442 294.479 218.068 295.371C217.703 296.252 217.488 296.786 217.422 296.973C215.981 300.374 214.582 303.786 213.225 307.208C213.057 307.612 212.851 307.929 212.607 308.157C212.364 308.385 212.022 308.489 211.583 308.468C211.012 308.468 210.436 308.494 209.856 308.546C209.491 308.566 209.121 308.577 208.747 308.577C208.522 308.577 208.377 308.504 208.312 308.359C208.256 308.203 208.298 308.012 208.438 307.783C208.784 307.234 209.135 306.689 209.491 306.15C209.678 305.849 209.861 305.564 210.038 305.295ZM204.634 310.428C204.699 310.282 204.704 310.153 204.648 310.039C204.601 309.925 204.517 309.868 204.395 309.868C204.208 309.847 204.011 309.847 203.805 309.868H203.497C196.431 309.961 189.36 310.5 182.285 311.485C179.58 311.848 176.89 312.325 174.213 312.916C171.537 313.507 168.883 314.249 166.254 315.141C164.85 315.618 163.465 316.167 162.098 316.789C160.732 317.401 159.398 318.132 158.098 318.982C156.741 319.822 155.505 320.849 154.392 322.062C153.091 323.545 152.361 325.121 152.202 326.791C152.033 328.471 152.436 330.088 153.409 331.644C154.129 332.732 154.99 333.666 155.992 334.443C159.642 337.316 163.989 338.778 169.033 338.83C170.325 338.83 171.808 338.643 173.483 338.27C175.149 337.886 176.759 337.321 178.312 336.574C179.866 335.838 181.373 334.967 182.833 333.961C186.436 331.504 189.772 328.642 192.842 325.375C194.966 323.167 196.969 320.844 198.85 318.407C200.731 315.96 202.556 313.471 204.325 310.941C204.428 310.754 204.531 310.583 204.634 310.428ZM255.423 317.334C255.611 317.199 255.723 316.976 255.76 316.665C255.807 316.354 255.779 316.053 255.676 315.763C255.629 315.669 255.564 315.607 255.48 315.576C255.405 315.535 255.325 315.514 255.241 315.514C255.072 315.545 254.909 315.602 254.75 315.685C253.018 316.649 251.619 318.018 250.552 319.791C250.346 320.206 250.37 320.393 250.622 320.351C250.884 320.299 251.273 320.123 251.788 319.822C252.302 319.511 252.836 319.159 253.388 318.765C253.94 318.36 254.413 318.018 254.806 317.738C255.161 317.489 255.367 317.354 255.423 317.334ZM236.154 278.308L240.14 291.468H232.25L236.154 278.308Z" fill="#0C0C0C"/>
<path d="M283.584 314.923C283.5 315.638 283.195 316.105 282.671 316.323C282.147 316.54 281.974 316.255 282.152 315.467C282.339 314.679 282.021 314.482 281.197 314.876C280.374 315.26 279.695 315.747 279.162 316.338C278.338 317.272 277.608 318.277 276.972 319.356C276.906 319.449 276.855 319.527 276.817 319.589C276.63 319.89 276.443 320.175 276.256 320.445C276.134 320.631 275.994 320.75 275.835 320.802C275.666 320.844 275.498 320.849 275.329 320.818C275.17 320.797 275.049 320.73 274.964 320.616C274.88 320.502 274.871 320.367 274.936 320.211C275.039 319.931 275.161 319.646 275.301 319.356C276.144 317.624 277 315.887 277.87 314.145C277.889 314.124 277.898 314.104 277.898 314.083C278.02 313.813 278.165 313.564 278.334 313.336C278.521 313.108 278.736 313.015 278.979 313.056C279.223 313.098 279.386 313.259 279.471 313.538C279.574 313.901 279.662 314.109 279.737 314.161C279.812 314.202 279.981 314.166 280.243 314.052C280.804 313.824 281.352 313.663 281.885 313.57C282.419 313.476 282.854 313.502 283.191 313.647C283.537 313.782 283.668 314.207 283.584 314.923Z" fill="#0C0C0C"/>
<path fill-rule="evenodd" clip-rule="evenodd" d="M286.054 320.787C284.697 320.766 283.804 320.434 283.373 319.791C282.943 319.138 282.961 318.272 283.429 317.194C283.822 316.375 284.318 315.659 284.917 315.047C285.123 314.84 285.334 314.674 285.549 314.55C285.764 314.425 286.008 314.363 286.279 314.363C286.438 314.332 286.621 314.363 286.827 314.456C286.892 314.477 286.958 314.503 287.023 314.534C287.182 314.503 287.337 314.446 287.486 314.363C287.524 314.332 287.575 314.306 287.641 314.285C287.95 314.15 288.277 314.093 288.623 314.114H289.059C289.611 314.207 290.027 314.467 290.308 314.892C290.589 315.306 290.687 315.815 290.603 316.416C290.556 316.779 290.453 317.121 290.294 317.443C289.218 319.579 287.847 320.693 286.181 320.787H286.054ZM288.315 315.218C287.575 315.187 286.915 315.426 286.335 315.934C285.764 316.432 285.339 317.007 285.058 317.66C284.777 318.314 284.697 318.853 284.819 319.278C284.95 319.693 285.343 319.807 285.998 319.62C286.738 319.371 287.388 318.905 287.95 318.22C288.52 317.536 288.867 316.888 288.988 316.276C289.119 315.654 288.895 315.301 288.315 315.218Z" fill="#0C0C0C"/>
<path fill-rule="evenodd" clip-rule="evenodd" d="M198.274 341.146C198.396 341.405 198.195 341.809 197.671 342.359C197.147 342.898 196.225 343.557 194.905 344.334C194.409 344.562 194.049 344.744 193.824 344.879C193.6 345.013 193.436 345.185 193.333 345.392C193.23 345.599 193.118 345.921 192.996 346.356C192.893 346.678 192.758 347.108 192.589 347.647C192.364 348.311 192.14 348.995 191.915 349.701C191.503 351.142 191.012 352.563 190.441 353.962C189.88 355.373 189.15 356.601 188.251 357.649C187.353 358.696 186.197 359.391 184.784 359.733C183.361 360.034 181.986 360.08 180.657 359.873C179.328 359.666 178.027 359.256 176.754 358.644C176.239 358.385 175.776 358.043 175.364 357.618C174.681 356.84 174.63 355.969 175.21 355.005C175.519 354.528 175.879 354.097 176.291 353.714C177.114 352.977 177.975 352.303 178.874 351.691C180.549 350.572 182.262 349.545 184.012 348.612C185.762 347.678 187.531 346.776 189.318 345.905C189.44 345.843 189.576 345.776 189.725 345.703C190.212 345.454 190.713 345.205 191.227 344.956C191.583 344.811 191.822 344.547 191.943 344.163C191.981 344.028 191.99 343.904 191.971 343.79C191.953 343.717 191.915 343.676 191.859 343.665C191.812 343.655 191.756 343.671 191.691 343.712C191.513 343.826 191.33 343.956 191.143 344.101C191.04 344.163 190.928 344.241 190.806 344.334C190.16 344.749 189.491 344.931 188.799 344.879C187.704 344.879 187.147 344.334 187.128 343.245C187.11 342.354 187.245 341.509 187.535 340.71C187.835 339.912 188.256 339.16 188.799 338.455C188.855 338.382 188.934 338.325 189.037 338.284C189.14 338.232 189.243 338.196 189.346 338.175C189.365 338.175 189.388 338.164 189.416 338.144C189.622 338.123 189.781 338.18 189.894 338.315C190.006 338.45 190.029 338.621 189.964 338.828C189.842 339.118 189.721 339.414 189.599 339.715L189.29 340.399C188.878 341.291 188.691 342.224 188.729 343.199C188.747 343.406 188.827 343.557 188.967 343.65C189.117 343.743 189.285 343.743 189.473 343.65C190.025 343.401 190.507 343.048 190.919 342.592C192.032 341.472 192.949 340.181 193.67 338.719C193.773 338.512 193.89 338.336 194.021 338.19C194.161 338.045 194.344 337.962 194.568 337.941C194.859 337.91 195.078 337.983 195.228 338.159C195.387 338.325 195.434 338.548 195.369 338.828C195.107 339.761 194.83 340.684 194.54 341.597C194.522 341.669 194.498 341.737 194.47 341.799C194.395 342.006 194.325 342.224 194.26 342.452C194.194 342.68 194.161 342.883 194.161 343.059C194.161 343.225 194.227 343.308 194.358 343.308C194.873 343.194 195.621 342.737 196.604 341.939C197.596 341.14 198.153 340.876 198.274 341.146ZM190.919 347.383C190.919 347.331 190.933 347.284 190.961 347.243C191.017 347.129 191.05 347.004 191.059 346.87C191.068 346.735 191.036 346.595 190.961 346.45H190.806C190.675 346.481 190.558 346.517 190.455 346.559C190.249 346.652 190.043 346.756 189.838 346.87C188.19 347.71 186.543 348.575 184.896 349.467C183.249 350.359 181.635 351.308 180.053 352.314C179.089 352.925 178.181 353.641 177.33 354.46C176.637 355.145 176.305 355.741 176.333 356.249C176.361 356.767 176.768 357.234 177.554 357.649C179.342 358.675 181.265 359.095 183.324 358.909C184.728 358.753 185.87 358.167 186.749 357.151C187.62 356.135 188.331 354.916 188.883 353.496C189.445 352.086 189.931 350.675 190.343 349.265C190.521 348.601 190.713 347.974 190.919 347.383Z" fill="#0C0C0C"/>
<path fill-rule="evenodd" clip-rule="evenodd" d="M228.063 343.448C228.254 343.236 228.438 343.015 228.614 342.784C228.609 343.039 228.482 343.276 228.232 343.494C227.885 343.805 227.193 344.314 226.154 345.019C225.115 345.724 224.474 346.419 224.231 347.103C223.978 347.787 224.175 348.352 224.82 348.798C225.457 349.244 226.72 349.229 228.611 348.752C230.511 348.275 231.428 347.44 231.362 346.247C231.325 345.656 231.203 345.086 230.997 344.536C230.969 344.495 230.955 344.464 230.955 344.443C230.777 343.987 230.721 343.676 230.787 343.51C230.861 343.334 231.138 343.116 231.615 342.857C232.132 342.554 232.906 342.18 233.936 341.735C233.913 341.78 233.89 341.825 233.868 341.87C233.851 341.903 233.835 341.936 233.819 341.97C233.351 343.048 233.332 343.914 233.763 344.568C234.193 345.211 235.087 345.542 236.444 345.563H236.57C238.236 345.47 239.607 344.355 240.683 342.219C240.843 341.897 240.945 341.555 240.992 341.192C241.077 340.591 240.978 340.083 240.697 339.668C240.417 339.243 240 338.984 239.448 338.89H239.013C238.667 338.87 238.339 338.927 238.03 339.061C237.965 339.082 237.913 339.108 237.876 339.139C237.726 339.222 237.572 339.279 237.413 339.31C237.347 339.279 237.282 339.253 237.216 339.232C237.01 339.139 236.828 339.108 236.669 339.139C236.397 339.139 236.154 339.201 235.939 339.326C235.723 339.45 235.513 339.616 235.307 339.824C235.079 340.056 234.866 340.304 234.668 340.566C234.584 340.564 234.479 340.586 234.352 340.632C231.844 341.659 230.515 342.188 230.365 342.219C230.225 342.24 230.103 342.167 230 342.001C229.898 341.825 229.767 341.509 229.607 341.052C229.542 340.886 229.467 340.705 229.383 340.508C229.261 340.186 229.191 339.855 229.172 339.512C229.172 339.232 229.214 338.958 229.299 338.688C229.42 338.346 229.603 338.138 229.846 338.066C230.099 337.983 230.347 338.04 230.59 338.237C230.656 338.289 230.716 338.361 230.773 338.455C230.819 338.496 230.871 338.538 230.927 338.579V338.626C231.049 338.74 231.175 338.828 231.306 338.89C231.512 339.004 231.704 338.984 231.882 338.828C232.153 338.6 232.204 338.346 232.036 338.066C231.83 337.661 231.554 337.387 231.208 337.242C230.861 337.086 230.468 337.019 230.029 337.039C229.252 337.07 228.676 337.293 228.302 337.708C227.937 338.113 227.74 338.615 227.712 339.217C227.675 339.818 227.778 340.43 228.021 341.052C228.087 341.224 228.152 341.393 228.215 341.56C228.17 341.608 228.124 341.661 228.077 341.721C227.759 342.115 227.366 342.556 226.898 343.043C226.439 343.52 225.976 343.847 225.508 344.023C225.05 344.189 224.708 344.189 224.484 344.023C224.259 343.847 224.268 343.266 224.512 342.281C224.577 342.053 224.638 341.825 224.694 341.597C224.797 340.985 224.54 340.679 223.922 340.679C223.492 340.72 223.131 340.912 222.841 341.255C222.186 341.918 221.517 342.566 220.834 343.199L220.806 343.245C220.665 343.36 220.492 343.505 220.286 343.681C220.08 343.847 219.874 343.977 219.668 344.07C219.463 344.153 219.275 344.163 219.107 344.101C219.051 344.049 219.027 343.982 219.037 343.899C219.046 343.805 219.07 343.722 219.107 343.65C219.809 341.98 220.88 340.679 222.322 339.746C222.631 339.538 222.921 339.404 223.192 339.341C223.473 339.269 223.749 339.44 224.02 339.855C224.039 339.875 224.062 339.891 224.09 339.901C224.128 339.912 224.156 339.917 224.175 339.917C224.446 340.031 224.685 339.984 224.891 339.777C225.05 339.601 225.101 339.398 225.045 339.17C224.914 338.413 224.53 338.014 223.894 337.973C223.258 337.9 222.649 338.024 222.069 338.346C220.983 338.895 219.996 339.627 219.107 340.539C218.349 341.358 217.764 342.291 217.352 343.339C217.081 344.002 217.062 344.531 217.296 344.925C217.521 345.309 217.951 345.522 218.588 345.563C219.449 345.615 220.249 345.397 220.988 344.91C221.297 344.713 221.905 344.179 222.813 343.308C222.86 345.247 224.002 345.77 226.238 344.879C226.51 344.744 226.767 344.583 227.01 344.396C227.01 344.376 227.024 344.365 227.052 344.365C227.417 344.096 227.754 343.79 228.063 343.448ZM228.737 347.305C229.392 347.056 229.668 346.569 229.565 345.843C229.565 345.791 229.556 345.734 229.537 345.672C229.5 345.278 229.425 344.977 229.313 344.77C229.2 344.552 228.948 344.557 228.555 344.785C227.581 345.397 226.683 346.113 225.859 346.932C225.831 346.968 225.804 347.003 225.779 347.037C225.753 347.071 225.728 347.103 225.705 347.134L225.677 347.181C225.621 347.264 225.611 347.357 225.649 347.461C225.686 347.564 225.77 347.616 225.901 347.616C226.865 347.782 227.811 347.678 228.737 347.305ZM238.704 339.995C237.965 339.964 237.305 340.202 236.725 340.71C236.154 341.208 235.728 341.783 235.447 342.437C235.166 343.09 235.087 343.629 235.209 344.054C235.34 344.469 235.733 344.583 236.388 344.396C237.127 344.148 237.778 343.681 238.339 342.997C238.91 342.312 239.256 341.664 239.378 341.052C239.509 340.43 239.284 340.078 238.704 339.995Z" fill="#0C0C0C"/>
<path fill-rule="evenodd" clip-rule="evenodd" d="M251.844 339.824C251.498 340.388 251.191 340.968 250.923 341.563C250.884 341.594 250.844 341.626 250.805 341.659C250.702 341.752 250.585 341.835 250.454 341.908C248.994 342.955 247.412 343.671 245.709 344.054C245.026 344.22 244.357 344.142 243.702 343.821C243.121 343.458 242.887 342.986 243 342.406C243.112 341.825 243.374 341.249 243.786 340.679C244.198 340.109 244.581 339.673 244.937 339.372C245.302 339.03 245.662 338.812 246.018 338.719C246.383 338.626 246.781 338.683 247.211 338.89C247.501 339.025 247.759 338.958 247.983 338.688C248.067 338.574 248.058 338.429 247.955 338.253C247.852 338.066 247.698 337.926 247.492 337.833C247.267 337.76 247.043 337.703 246.818 337.661C245.62 337.547 244.497 337.921 243.449 338.781C242.401 339.632 241.741 340.705 241.47 342.001C241.245 343.401 241.732 344.36 242.93 344.879C243.585 345.128 244.221 345.242 244.839 345.221C246.505 345.2 248.03 344.801 249.415 344.023C249.694 343.866 249.964 343.696 250.227 343.514C250.031 344.476 250.149 345.107 250.58 345.408C251.058 345.739 251.727 345.812 252.588 345.625C253.449 345.428 254.221 345.055 254.904 344.505C254.941 344.476 254.977 344.446 255.013 344.416C255.029 344.606 255.082 344.775 255.171 344.925C255.395 345.309 255.826 345.522 256.462 345.563C257.323 345.615 258.123 345.397 258.863 344.91C259.172 344.713 259.78 344.179 260.688 343.308C260.734 345.247 261.876 345.77 264.113 344.879C264.384 344.744 264.642 344.583 264.885 344.396C264.885 344.376 264.899 344.365 264.927 344.365C264.951 344.348 264.975 344.329 264.999 344.311C265.028 344.29 265.056 344.268 265.084 344.246C265.088 344.286 265.091 344.325 265.096 344.365C265.217 345.444 265.784 345.957 266.794 345.905C267.412 345.885 267.997 345.693 268.549 345.33C269.475 344.708 270.299 343.94 271.02 343.028C271.413 342.551 271.796 342.063 272.171 341.566C272.227 341.493 272.288 341.426 272.353 341.363C272.597 341.021 272.742 340.881 272.788 340.943C272.845 340.995 272.812 341.27 272.69 341.768C272.672 341.903 272.639 342.037 272.592 342.172C272.517 342.452 272.456 342.737 272.409 343.028C272.307 344.396 272.882 345.071 274.136 345.05C274.679 345.029 275.166 344.884 275.596 344.614C276.04 344.368 276.457 344.08 276.846 343.749C276.882 344.052 276.98 344.324 277.14 344.568C277.571 345.211 278.465 345.542 279.822 345.563H279.948C281.614 345.47 282.985 344.355 284.061 342.219C284.22 341.897 284.323 341.555 284.37 341.192C284.454 340.591 284.356 340.083 284.075 339.668C283.794 339.243 283.378 338.984 282.826 338.89H282.391C282.044 338.87 281.717 338.927 281.408 339.061C281.342 339.082 281.291 339.108 281.253 339.139C281.104 339.222 280.949 339.279 280.79 339.31C280.725 339.279 280.659 339.253 280.594 339.232C280.388 339.139 280.205 339.108 280.046 339.139C279.775 339.139 279.531 339.201 279.316 339.326C279.101 339.45 278.89 339.616 278.684 339.824C278.205 340.314 277.791 340.87 277.443 341.493C276.713 342.276 275.91 342.948 275.035 343.51C274.997 343.531 274.969 343.557 274.95 343.588C274.819 343.65 274.698 343.707 274.585 343.759C274.473 343.8 274.365 343.785 274.262 343.712C274.103 343.577 274.024 343.422 274.024 343.245C274.024 343.059 274.052 342.872 274.108 342.686C274.314 341.846 274.571 341.026 274.88 340.228C275.133 339.544 275.381 338.859 275.624 338.175C276.364 336.194 277.112 334.229 277.87 332.28C278.638 330.32 279.452 328.386 280.313 326.478C280.481 326.084 280.626 325.669 280.748 325.234C280.814 325.057 280.79 324.917 280.678 324.814C280.566 324.71 280.416 324.658 280.229 324.658H280.102C279.934 324.658 279.77 324.679 279.611 324.72C279.461 324.751 279.335 324.855 279.232 325.031C279.007 325.394 278.801 325.773 278.614 326.167C277.978 327.442 277.341 328.707 276.705 329.962C275.919 331.559 275.138 333.146 274.361 334.722C273.949 335.541 273.528 336.36 273.097 337.179C273.013 337.345 272.929 337.506 272.845 337.661C272.639 338.076 272.311 338.211 271.862 338.066C270.271 337.796 268.858 338.123 267.622 339.046C266.535 339.858 265.766 340.996 265.317 342.46C265.149 342.646 264.967 342.841 264.773 343.043C264.314 343.52 263.851 343.847 263.383 344.023C262.924 344.189 262.583 344.189 262.358 344.023C262.134 343.847 262.143 343.266 262.386 342.281C262.452 342.053 262.513 341.825 262.569 341.597C262.672 340.985 262.414 340.679 261.797 340.679C261.366 340.72 261.006 340.912 260.716 341.255C260.061 341.918 259.392 342.566 258.708 343.199L258.68 343.245C258.54 343.36 258.367 343.505 258.161 343.681C257.955 343.847 257.749 343.977 257.543 344.07C257.337 344.153 257.15 344.163 256.982 344.101C256.925 344.049 256.902 343.982 256.911 343.899C256.921 343.805 256.944 343.722 256.982 343.65C257.684 341.98 258.755 340.679 260.196 339.746C260.505 339.538 260.795 339.404 261.067 339.341C261.347 339.269 261.624 339.44 261.895 339.855C261.914 339.875 261.937 339.891 261.965 339.901C262.003 339.912 262.031 339.917 262.049 339.917C262.321 340.031 262.559 339.984 262.765 339.777C262.924 339.601 262.976 339.398 262.92 339.17C262.789 338.413 262.405 338.014 261.769 337.973C261.132 337.9 260.524 338.024 259.944 338.346C258.858 338.895 257.871 339.627 256.982 340.539C256.442 341.122 255.99 341.763 255.626 342.462C254.843 343.164 254.041 343.663 253.219 343.961C252.218 344.324 251.717 344.298 251.717 343.883C251.848 343.157 252.078 342.463 252.405 341.799C252.461 341.685 252.574 341.441 252.742 341.068C252.911 340.695 253.065 340.321 253.205 339.948C253.243 339.751 253.182 339.59 253.023 339.466C252.873 339.331 252.695 339.289 252.489 339.341C252.209 339.435 251.993 339.595 251.844 339.824ZM271.427 340.057C271.53 339.87 271.558 339.694 271.511 339.528C271.474 339.352 271.371 339.222 271.202 339.139C270.856 338.932 270.486 338.906 270.093 339.061C269.129 339.383 268.32 339.995 267.665 340.897C267.019 341.799 266.668 342.794 266.612 343.883C266.63 343.935 266.64 343.971 266.64 343.992V344.272C266.724 344.77 267 344.868 267.468 344.568C267.945 344.257 268.474 343.759 269.054 343.074C269.644 342.39 270.168 341.742 270.627 341.13C271.095 340.508 271.361 340.15 271.427 340.057ZM282.082 339.995C281.342 339.964 280.683 340.202 280.102 340.71C279.531 341.208 279.106 341.783 278.825 342.437C278.544 343.09 278.465 343.629 278.586 344.054C278.717 344.469 279.11 344.583 279.765 344.396C280.505 344.148 281.155 343.681 281.717 342.997C282.288 342.312 282.634 341.664 282.756 341.052C282.887 340.43 282.662 340.078 282.082 339.995Z" fill="#0C0C0C"/>
<path d="M254.23 337.49C254.183 337.532 254.085 337.584 253.935 337.646C253.795 337.698 253.641 337.739 253.472 337.77C253.313 337.791 253.187 337.76 253.093 337.677C253 337.594 252.995 337.428 253.079 337.179C253.229 336.744 253.383 336.365 253.542 336.044C253.711 335.712 253.926 335.349 254.188 334.955C254.357 334.779 254.539 334.685 254.736 334.675C254.932 334.654 255.096 334.711 255.227 334.846C255.358 334.971 255.395 335.147 255.339 335.375C255.133 336.194 254.764 336.899 254.23 337.49Z" fill="#0C0C0C"/>
<path fill-rule="evenodd" clip-rule="evenodd" d="M291.894 341.363C290.416 341.975 289.349 342.473 288.694 342.857C288.216 343.116 287.94 343.334 287.865 343.51C287.8 343.676 287.856 343.987 288.034 344.443C288.034 344.464 288.048 344.495 288.076 344.536C288.282 345.086 288.404 345.656 288.441 346.247C288.506 347.44 287.589 348.275 285.689 348.752C283.799 349.229 282.536 349.244 281.899 348.798C281.253 348.352 281.057 347.787 281.31 347.103C281.553 346.419 282.194 345.724 283.233 345.019C284.272 344.314 284.964 343.805 285.31 343.494C285.666 343.183 285.774 342.836 285.633 342.452C285.587 342.317 285.535 342.183 285.479 342.048C285.357 341.726 285.231 341.395 285.1 341.052C284.857 340.43 284.754 339.818 284.791 339.217C284.819 338.615 285.016 338.113 285.381 337.708C285.755 337.293 286.331 337.07 287.107 337.039C287.547 337.019 287.94 337.086 288.286 337.242C288.633 337.387 288.909 337.661 289.115 338.066C289.283 338.346 289.232 338.6 288.96 338.828C288.783 338.984 288.591 339.004 288.385 338.89C288.254 338.828 288.127 338.74 288.006 338.626V338.579C287.95 338.538 287.898 338.496 287.851 338.455C287.795 338.361 287.734 338.289 287.669 338.237C287.426 338.04 287.177 337.983 286.925 338.066C286.681 338.138 286.499 338.346 286.377 338.688C286.293 338.958 286.251 339.232 286.251 339.512C286.27 339.855 286.34 340.186 286.462 340.508C286.546 340.705 286.621 340.886 286.686 341.052C286.845 341.509 286.976 341.825 287.079 342.001C287.182 342.167 287.304 342.24 287.444 342.219C287.594 342.188 288.923 341.659 291.431 340.632C291.974 340.435 292.128 340.679 291.894 341.363ZM285.816 347.305C286.471 347.056 286.747 346.569 286.644 345.843C286.644 345.791 286.635 345.734 286.616 345.672C286.579 345.278 286.504 344.977 286.391 344.77C286.279 344.552 286.026 344.557 285.633 344.785C284.66 345.397 283.762 346.113 282.938 346.932C282.882 347.004 282.83 347.072 282.784 347.134L282.756 347.181C282.699 347.264 282.69 347.357 282.727 347.461C282.765 347.564 282.849 347.616 282.98 347.616C283.944 347.782 284.889 347.678 285.816 347.305Z" fill="#0C0C0C"/>
<path d="M28.912 293.308C28.6906 294.474 28.4552 295.532 28.2061 296.483C27.9569 297.434 27.6247 298.262 27.2094 298.968C26.7941 299.643 26.2681 300.164 25.6314 300.532C24.9946 300.9 24.1917 301.084 23.2228 301.084H14.7096V271.636H18.6547V270.9H7.11001V271.636H10.6814V301.084H7.11001V301.821H28.4968C29.2996 301.821 29.7011 301.33 29.7011 300.348V293.446C29.7011 292.71 29.5903 292.342 29.3689 292.342C29.1751 292.342 29.0228 292.664 28.912 293.308Z" fill="#0C0C0C"/>
<path fill-rule="evenodd" clip-rule="evenodd" d="M39.9432 301.084V301.821H49.1623V301.084H44.262L46.8783 292.204H55.2254L57.9247 301.084H53.6473V301.821H65.8149V301.084H62.202L53.1074 270.486H52.6091L43.5145 301.084H39.9432ZM51.0311 278.308L55.0177 291.468H47.1275L51.0311 278.308Z" fill="#0C0C0C"/>
<path d="M95.7849 271.636H99.3563V301.084H95.868V301.821H106.956V301.084H103.385V285.9H106.665C107.274 285.9 107.759 286.007 108.119 286.222C108.479 286.406 108.755 286.682 108.949 287.05C109.171 287.419 109.337 287.863 109.448 288.385C109.558 288.906 109.669 289.489 109.78 290.133C109.863 290.563 109.974 290.777 110.112 290.777C110.278 290.777 110.361 290.578 110.361 290.179V280.839C110.361 280.471 110.278 280.286 110.112 280.286C109.974 280.286 109.863 280.501 109.78 280.931C109.669 281.575 109.558 282.158 109.448 282.679C109.337 283.201 109.171 283.645 108.949 284.014C108.755 284.382 108.479 284.673 108.119 284.888C107.759 285.072 107.274 285.164 106.665 285.164H103.385V271.636H109.697C110.638 271.636 111.427 271.897 112.064 272.418C112.701 272.909 113.213 273.538 113.6 274.305C113.988 275.041 114.265 275.839 114.431 276.697C114.625 277.526 114.735 278.277 114.763 278.952C114.763 279.382 114.874 279.596 115.095 279.596C115.289 279.596 115.386 279.397 115.386 278.998V272.004C115.386 271.268 115.04 270.9 114.348 270.9H95.7849V271.636Z" fill="#0C0C0C"/>
<path d="M138.262 271.636V270.9H127.091V271.636H130.662V301.084H127.091V301.821H138.262V301.084H134.69V271.636H138.262Z" fill="#0C0C0C"/>
<path fill-rule="evenodd" clip-rule="evenodd" d="M170.299 299.842C170.216 299.535 170.147 299.106 170.091 298.554C170.064 298.002 170.036 297.403 170.008 296.759C170.008 296.115 169.994 295.455 169.967 294.781C169.967 294.106 169.925 293.462 169.842 292.848C169.676 291.621 169.399 290.609 169.012 289.811C168.624 289.014 168.153 288.369 167.6 287.879C167.046 287.357 166.409 286.958 165.689 286.682C164.97 286.376 164.194 286.099 163.364 285.854C165.523 285.425 167.184 284.581 168.347 283.323C169.51 282.035 170.091 280.425 170.091 278.492C170.091 277.296 169.856 276.222 169.385 275.271C168.942 274.32 168.333 273.523 167.558 272.878C166.783 272.234 165.855 271.743 164.776 271.406C163.724 271.069 162.602 270.9 161.412 270.9H149.701V271.636H153.273V301.084H149.701V301.821H160.872V301.084H157.301V286.038H160.748C161.191 286.038 161.661 286.13 162.16 286.314C162.658 286.468 163.115 286.79 163.53 287.28C163.973 287.741 164.347 288.4 164.651 289.259C164.983 290.087 165.219 291.161 165.357 292.48C165.44 293.278 165.482 294.09 165.482 294.919C165.509 295.747 165.551 296.544 165.606 297.311C165.689 298.078 165.814 298.784 165.98 299.428C166.174 300.072 166.465 300.624 166.852 301.084C167.212 301.514 167.627 301.805 168.098 301.959C168.596 302.112 169.122 302.189 169.676 302.189C170.147 302.189 170.617 302.127 171.088 302.005C171.559 301.913 171.988 301.79 172.375 301.637C172.791 301.483 173.137 301.33 173.413 301.176C173.718 300.992 173.94 300.824 174.078 300.67C174.161 300.578 174.203 300.486 174.203 300.394C174.203 300.302 174.161 300.256 174.078 300.256C174.023 300.256 173.94 300.287 173.829 300.348C173.275 300.778 172.652 300.992 171.96 300.992C171.102 300.992 170.548 300.609 170.299 299.842ZM157.301 285.302V271.636H161.412C164.568 271.636 166.146 273.645 166.146 277.664V279.32C166.146 283.308 164.568 285.302 161.412 285.302H157.301Z" fill="#0C0C0C"/>
<path d="M0 310.315L175.055 310.315V308.192L0 308.192V310.315Z" fill="#0C0C0C"/>
<path fill-rule="evenodd" clip-rule="evenodd" d="M312.533 168.769C312.448 168.44 312.36 168.105 312.269 167.765L312.257 167.767C312.21 167.484 312.016 166.618 311.608 165.384L311.582 165.332C309.194 157.232 305.132 146.865 299.593 138.308C293.141 128.341 284.568 120.66 274.186 122.196L274.266 122.732L274.264 122.732L274.153 122.238C271.366 122.859 269.048 124.055 267.147 125.52C267.004 125.629 266.864 125.739 266.727 125.849C266.067 126.133 265.473 126.686 264.996 127.247C264.692 127.604 264.416 127.987 264.181 128.351C264.021 128.543 263.868 128.735 263.723 128.926C261.741 131.44 260.607 134.066 260.156 135.794L260.139 135.792C258.846 146.65 266.743 155.407 276.911 161.903C286.726 168.173 298.8 172.433 307.29 174.534C307.582 174.597 307.978 174.668 308.337 174.694L310.042 174.697L315.361 180.001L275.3 219.479C273.643 221.112 273.627 223.776 275.265 225.429L277.441 227.625L276.538 228.526C274.912 229.904 272.243 231.749 269.506 232.417C268.946 232.554 268.691 232.644 268.677 232.695C267.901 232.999 267.173 233.464 266.545 234.089L265.29 235.341C262.852 237.772 262.852 241.715 265.29 244.147L266.323 245.176C268.761 247.608 272.715 247.608 275.153 245.176L276.408 243.925C277.074 243.261 277.558 242.485 277.86 241.658C277.912 241.603 277.993 241.346 278.109 240.838C278.86 237.541 281.307 234.317 282.625 232.905L282.649 232.881L284.483 234.731C286.121 236.384 288.792 236.4 290.45 234.767L329.928 195.862L314.71 180.686L315.379 180.019L337.256 201.835L337.372 201.72C338.487 204.804 342.042 209.842 347.033 215.323L353.306 222.769C353.54 223.221 353.847 223.646 354.227 224.025L363.762 233.533C365.739 235.504 368.944 235.504 370.921 233.533L371.826 232.63C373.803 230.659 373.803 227.462 371.826 225.49L362.292 215.983C362.003 215.695 361.688 215.449 361.355 215.245L354.036 208.859C348.087 203.435 342.626 199.661 339.56 198.796L318.055 177.35L318.434 176.972L318.053 177.348L312.742 172.052L312.744 169.973L312.744 169.943C312.742 169.855 312.74 169.775 312.727 169.662C312.708 169.499 312.666 169.275 312.563 168.887L312.558 168.867C312.552 168.846 312.546 168.824 312.54 168.802C312.538 168.791 312.536 168.78 312.533 168.769ZM311.879 171.191L311.899 171.211L311.899 171.171L311.879 171.191ZM310.792 165.635C311.183 166.964 311.529 168.232 311.828 169.419L311.956 169.926L311.953 169.929C307.215 161.097 299.405 148.427 291.168 138.762C287.007 133.88 282.717 129.74 278.64 127.255C275.519 125.352 272.462 124.385 269.67 124.866C270.15 124.594 270.656 124.335 271.19 124.092L271.193 124.101C274.592 122.875 278.327 123.854 282.201 126.39C286.072 128.924 290.013 132.969 293.769 137.727C300.631 146.416 306.819 157.401 310.792 165.635ZM309.137 160.463C306.716 153.45 303.263 145.528 298.884 138.765C292.812 129.383 285.064 122.381 275.925 122.866C278.148 123.212 280.413 124.213 282.664 125.686C286.645 128.292 290.651 132.418 294.432 137.206C300.074 144.35 305.254 153.02 309.137 160.463ZM261.167 135.342C260.966 139.031 262.378 142.701 264.823 146.224C267.665 150.319 271.93 154.256 276.793 157.862C284.704 163.728 294.252 168.756 301.992 172.19C294.311 169.84 285.118 166.146 277.366 161.194C267.297 154.761 259.812 146.31 260.961 136.029L260.966 136.03C261.022 135.815 261.089 135.585 261.167 135.342ZM262.163 133.695L262.224 133.707C261.422 137.693 262.748 141.755 265.517 145.745C268.286 149.734 272.471 153.608 277.297 157.187C286.914 164.318 298.996 170.216 307.223 173.479L307.733 173.636C298.97 168.997 286.499 161.395 276.921 153.312C272.042 149.194 267.889 144.931 265.366 140.853C263.464 137.778 262.458 134.752 262.827 131.959C262.499 132.634 262.283 133.23 262.163 133.695ZM264.375 129.695L264.389 129.703C262.849 132.788 263.626 136.437 266.085 140.412C268.538 144.378 272.613 148.574 277.466 152.669C287.162 160.852 299.866 168.556 308.618 173.151L308.681 173.184L308.951 172.915C300.596 166.747 288.593 157.262 279.192 148.443C274.415 143.963 270.293 139.639 267.664 136.001C266.352 134.185 265.394 132.515 264.921 131.067C264.72 130.449 264.602 129.856 264.589 129.301C264.508 129.442 264.436 129.575 264.375 129.695ZM265.804 127.849C265.346 128.532 265.299 129.504 265.724 130.806C266.157 132.135 267.057 133.722 268.349 135.509C270.93 139.081 275.004 143.361 279.77 147.83C289.177 156.654 301.211 166.159 309.555 172.314L310.316 171.557C304.075 163.142 294.509 151.084 285.674 141.686C281.179 136.905 276.888 132.829 273.33 130.269C271.548 128.988 269.975 128.105 268.668 127.695C267.39 127.293 266.452 127.368 265.804 127.849ZM267.155 126.594C267.708 126.591 268.302 126.698 268.922 126.892C270.354 127.342 272.013 128.285 273.823 129.587C277.449 132.194 281.784 136.318 286.29 141.111C295.12 150.504 304.666 162.531 310.92 170.956L311.329 170.549C306.62 161.739 298.779 148.992 290.525 139.307C286.386 134.451 282.165 130.389 278.2 127.972C274.228 125.551 270.617 124.837 267.606 126.46L267.538 126.496L267.462 126.507C267.369 126.519 267.274 126.543 267.177 126.576L267.155 126.594Z" fill="#151515"/>
<path d="M357.938 138.042C359.596 136.409 362.267 136.425 363.905 138.077L365.785 139.975L365.836 139.924C367.154 138.512 369.601 135.288 370.353 131.991C370.469 131.483 370.55 131.226 370.602 131.171C370.904 130.344 371.388 129.568 372.053 128.904L373.308 127.653C375.747 125.221 379.7 125.221 382.139 127.653L383.171 128.682C385.61 131.114 385.61 135.056 383.171 137.488L381.916 138.739C381.289 139.365 380.561 139.83 379.784 140.134C379.77 140.185 379.516 140.275 378.956 140.411C376.219 141.08 373.55 142.925 371.923 144.303L370.993 145.23L373.123 147.38C374.761 149.032 374.745 151.696 373.088 153.329L333.922 191.926L318.682 176.728L357.938 138.042Z" fill="#151515"/>
</svg>
