<svg width="544" height="585" viewBox="0 0 544 585" fill="none" xmlns="http://www.w3.org/2000/svg">
<path fill-rule="evenodd" clip-rule="evenodd" d="M461.664 0L510.195 17.6636L536.017 62.3896L527.049 113.25L487.487 146.447H435.842L396.28 113.25L387.311 62.3896L413.134 17.6636L461.664 0ZM45.9537 160.107L31.9501 155L17.9465 160.107L10.4954 173.039L13.0831 187.745L24.499 197.344H39.4013L50.8171 187.745L53.4049 173.039L45.9537 160.107ZM89.5178 490.868L54.1644 478L18.8111 490.868L0 523.449L6.53302 560.5L35.3533 584.683H72.9755L101.796 560.5L108.329 523.449L89.5178 490.868ZM524.518 397.868L489.164 385L453.811 397.868L435 430.449L441.533 467.5L470.353 491.683H507.976L536.796 467.5L543.329 430.449L524.518 397.868Z" fill="#B01C22"/>
</svg>
