<svg width="29" height="29" viewBox="0 0 29 29" fill="none" xmlns="http://www.w3.org/2000/svg">
<path d="M9.75133 15.1561L19.8524 24.7805C20.0209 24.9412 20.2449 25.0308 20.4777 25.0308C20.7106 25.0308 20.9345 24.9412 21.103 24.7805L21.1139 24.7696C21.1959 24.6917 21.2612 24.598 21.3058 24.4941C21.3504 24.3902 21.3734 24.2782 21.3734 24.1652C21.3734 24.0521 21.3504 23.9402 21.3058 23.8362C21.2612 23.7323 21.1959 23.6386 21.1139 23.5607L11.6019 14.4982L21.1139 5.43931C21.1959 5.36142 21.2612 5.26767 21.3058 5.16375C21.3504 5.05984 21.3734 4.94793 21.3734 4.83484C21.3734 4.72176 21.3504 4.60985 21.3058 4.50593C21.2612 4.40202 21.1959 4.30826 21.1139 4.23038L21.103 4.2195C20.9345 4.05883 20.7106 3.9692 20.4777 3.9692C20.2449 3.9692 20.0209 4.05883 19.8524 4.2195L9.75133 13.8439C9.6625 13.9285 9.59178 14.0303 9.54345 14.1431C9.49513 14.2559 9.47021 14.3773 9.47021 14.5C9.47021 14.6227 9.49513 14.7441 9.54345 14.8569C9.59178 14.9697 9.6625 15.0715 9.75133 15.1561Z" fill="#838383"/>
</svg>
