<svg width="344" height="55" viewBox="0 0 344 55" fill="none" xmlns="http://www.w3.org/2000/svg">
<path d="M2.40667 51.9733L2.00326 51.9727L2.05601 19.6091L2.45942 19.6097L2.40977 50.0671L2.40667 51.9733ZM52.545 2.26199L52.9484 2.26759L52.4995 34.6281L52.0961 34.6225L52.5186 4.16806L52.545 2.26199ZM9.20472 26.9316C9.22093 16.9905 17.2929 8.94481 27.234 8.96101L45.234 8.99035L45.2047 26.9903C45.1885 36.9314 37.1165 44.9772 27.1754 44.961L9.17538 44.9316L9.20472 26.9316Z" stroke="#B01C22" stroke-width="4"/>
<path d="M79.8125 27H74.2017V8.81818H80.0611C81.8248 8.81818 83.334 9.18217 84.5888 9.91016C85.8435 10.6322 86.8053 11.6709 87.4741 13.0263C88.1429 14.3757 88.4773 15.9915 88.4773 17.8736C88.4773 19.7675 88.1399 21.3981 87.4652 22.7653C86.7905 24.1265 85.808 25.1741 84.5178 25.908C83.2275 26.636 81.6591 27 79.8125 27ZM76.4034 25.0469H79.6705C81.1738 25.0469 82.4196 24.7569 83.408 24.1768C84.3964 23.5968 85.1333 22.7712 85.6186 21.6999C86.1039 20.6287 86.3466 19.3532 86.3466 17.8736C86.3466 16.4058 86.1069 15.1422 85.6275 14.0827C85.1481 13.0174 84.4319 12.2006 83.479 11.6325C82.5262 11.0584 81.3395 10.7713 79.919 10.7713H76.4034V25.0469ZM92.1705 27V8.81818H98.3139C99.7344 8.81818 100.9 9.06084 101.812 9.54616C102.723 10.0256 103.398 10.6855 103.836 11.5259C104.274 12.3664 104.493 13.3222 104.493 14.3935C104.493 15.4647 104.274 16.4147 103.836 17.2433C103.398 18.0719 102.726 18.7229 101.821 19.1964C100.915 19.6639 99.758 19.8977 98.3494 19.8977H93.3778V17.9091H98.2784C99.2491 17.9091 100.03 17.767 100.622 17.483C101.22 17.1989 101.652 16.7964 101.918 16.2756C102.191 15.7488 102.327 15.1214 102.327 14.3935C102.327 13.6655 102.191 13.0292 101.918 12.4847C101.646 11.9402 101.211 11.52 100.613 11.2241C100.016 10.9222 99.2254 10.7713 98.2429 10.7713H94.3722V27H92.1705ZM100.729 18.8324L105.203 27H102.646L98.2429 18.8324H100.729ZM123.503 17.9091C123.503 19.8267 123.156 21.4839 122.464 22.8807C121.771 24.2775 120.821 25.3546 119.614 26.1122C118.407 26.8698 117.028 27.2486 115.477 27.2486C113.926 27.2486 112.547 26.8698 111.34 26.1122C110.133 25.3546 109.183 24.2775 108.49 22.8807C107.798 21.4839 107.451 19.8267 107.451 17.9091C107.451 15.9915 107.798 14.3343 108.49 12.9375C109.183 11.5407 110.133 10.4635 111.34 9.70597C112.547 8.94839 113.926 8.5696 115.477 8.5696C117.028 8.5696 118.407 8.94839 119.614 9.70597C120.821 10.4635 121.771 11.5407 122.464 12.9375C123.156 14.3343 123.503 15.9915 123.503 17.9091ZM121.372 17.9091C121.372 16.3348 121.109 15.006 120.582 13.9229C120.061 12.8398 119.354 12.0201 118.46 11.4638C117.572 10.9074 116.578 10.6293 115.477 10.6293C114.376 10.6293 113.379 10.9074 112.485 11.4638C111.597 12.0201 110.89 12.8398 110.363 13.9229C109.843 15.006 109.582 16.3348 109.582 17.9091C109.582 19.4834 109.843 20.8121 110.363 21.8952C110.89 22.9783 111.597 23.7981 112.485 24.3544C113.379 24.9107 114.376 25.1889 115.477 25.1889C116.578 25.1889 117.572 24.9107 118.46 24.3544C119.354 23.7981 120.061 22.9783 120.582 21.8952C121.109 20.8121 121.372 19.4834 121.372 17.9091ZM127.205 27V8.81818H133.561C134.828 8.81818 135.872 9.03717 136.695 9.47514C137.518 9.9072 138.13 10.4902 138.533 11.2241C138.935 11.9521 139.136 12.7599 139.136 13.6477C139.136 14.429 138.997 15.0741 138.719 15.5831C138.447 16.0921 138.086 16.4946 137.636 16.7905C137.192 17.0864 136.71 17.3054 136.189 17.4474V17.625C136.745 17.6605 137.305 17.8558 137.867 18.2109C138.429 18.5661 138.9 19.075 139.278 19.7379C139.657 20.4008 139.847 21.2116 139.847 22.1705C139.847 23.0819 139.64 23.9016 139.225 24.6296C138.811 25.3576 138.157 25.9347 137.263 26.3608C136.37 26.7869 135.207 27 133.774 27H127.205ZM129.406 25.0469H133.774C135.212 25.0469 136.233 24.7687 136.837 24.2124C137.447 23.6501 137.752 22.9695 137.752 22.1705C137.752 21.5549 137.595 20.9867 137.281 20.4659C136.967 19.9392 136.52 19.5189 135.94 19.2053C135.36 18.8857 134.674 18.7259 133.881 18.7259H129.406V25.0469ZM129.406 16.8082H133.49C134.153 16.8082 134.751 16.678 135.283 16.4176C135.822 16.1572 136.248 15.7902 136.562 15.3168C136.881 14.8433 137.041 14.2869 137.041 13.6477C137.041 12.8487 136.763 12.171 136.207 11.6147C135.65 11.0524 134.769 10.7713 133.561 10.7713H129.406V16.8082ZM158.805 17.9091C158.805 19.8267 158.459 21.4839 157.767 22.8807C157.074 24.2775 156.124 25.3546 154.917 26.1122C153.709 26.8698 152.33 27.2486 150.78 27.2486C149.229 27.2486 147.85 26.8698 146.643 26.1122C145.435 25.3546 144.485 24.2775 143.793 22.8807C143.1 21.4839 142.754 19.8267 142.754 17.9091C142.754 15.9915 143.1 14.3343 143.793 12.9375C144.485 11.5407 145.435 10.4635 146.643 9.70597C147.85 8.94839 149.229 8.5696 150.78 8.5696C152.33 8.5696 153.709 8.94839 154.917 9.70597C156.124 10.4635 157.074 11.5407 157.767 12.9375C158.459 14.3343 158.805 15.9915 158.805 17.9091ZM156.675 17.9091C156.675 16.3348 156.411 15.006 155.884 13.9229C155.364 12.8398 154.656 12.0201 153.763 11.4638C152.875 10.9074 151.881 10.6293 150.78 10.6293C149.679 10.6293 148.682 10.9074 147.788 11.4638C146.9 12.0201 146.193 12.8398 145.666 13.9229C145.145 15.006 144.885 16.3348 144.885 17.9091C144.885 19.4834 145.145 20.8121 145.666 21.8952C146.193 22.9783 146.9 23.7981 147.788 24.3544C148.682 24.9107 149.679 25.1889 150.78 25.1889C151.881 25.1889 152.875 24.9107 153.763 24.3544C154.656 23.7981 155.364 22.9783 155.884 21.8952C156.411 20.8121 156.675 19.4834 156.675 17.9091ZM160.756 10.7713V8.81818H174.393V10.7713H168.675V27H166.474V10.7713H160.756ZM179.992 8.81818V27H177.791V8.81818H179.992ZM191.367 8.81818H193.569V21.8153C193.569 22.9754 193.356 23.9608 192.93 24.7717C192.503 25.5825 191.903 26.198 191.127 26.6183C190.352 27.0385 189.438 27.2486 188.384 27.2486C187.39 27.2486 186.505 27.0681 185.73 26.707C184.954 26.3401 184.345 25.8192 183.901 25.1445C183.457 24.4698 183.235 23.6679 183.235 22.7386H185.401C185.401 23.2536 185.528 23.7034 185.783 24.0881C186.043 24.4669 186.398 24.7628 186.848 24.9759C187.298 25.1889 187.81 25.2955 188.384 25.2955C189.017 25.2955 189.556 25.1623 190 24.896C190.444 24.6296 190.781 24.239 191.012 23.7241C191.249 23.2032 191.367 22.567 191.367 21.8153V8.81818ZM204.391 27V8.81818H208.235V23.8306H216.03V27H204.391ZM218.575 27V8.81818H230.827V11.9876H222.419V16.32H230.196V19.4893H222.419V23.8306H230.862V27H218.575ZM237.017 27H232.898L239.174 8.81818H244.128L250.396 27H246.276L241.722 12.973H241.58L237.017 27ZM236.759 19.8533H246.49V22.854H236.759V19.8533ZM267.792 8.81818V27H264.472L256.561 15.5565H256.428V27H252.584V8.81818H255.958L263.806 20.2528H263.966V8.81818H267.792ZM277.413 27H270.968V8.81818H277.467C279.295 8.81818 280.87 9.18217 282.19 9.91016C283.509 10.6322 284.524 11.6709 285.235 13.0263C285.951 14.3816 286.309 16.0033 286.309 17.8913C286.309 19.7853 285.951 21.4129 285.235 22.7741C284.524 24.1354 283.503 25.18 282.172 25.908C280.846 26.636 279.26 27 277.413 27ZM274.812 23.7063H277.253C278.39 23.7063 279.346 23.5051 280.121 23.1026C280.902 22.6942 281.488 22.0639 281.879 21.2116C282.275 20.3535 282.474 19.2467 282.474 17.8913C282.474 16.5478 282.275 15.4499 281.879 14.5977C281.488 13.7454 280.905 13.118 280.13 12.7156C279.355 12.3131 278.399 12.1119 277.262 12.1119H274.812V23.7063ZM289.156 27V8.81818H296.33C297.703 8.81818 298.875 9.0638 299.845 9.55504C300.822 10.0404 301.565 10.7299 302.074 11.6236C302.589 12.5114 302.846 13.556 302.846 14.7575C302.846 15.9648 302.586 17.0036 302.065 17.8736C301.544 18.7377 300.789 19.4006 299.801 19.8622C298.818 20.3239 297.629 20.5547 296.232 20.5547H291.429V17.4652H295.611C296.345 17.4652 296.954 17.3646 297.439 17.1634C297.925 16.9621 298.286 16.6603 298.523 16.2578C298.765 15.8554 298.887 15.3552 298.887 14.7575C298.887 14.1538 298.765 13.6448 298.523 13.2305C298.286 12.8162 297.922 12.5025 297.431 12.2894C296.945 12.0704 296.333 11.9609 295.593 11.9609H293.001V27H289.156ZM298.975 18.7259L303.494 27H299.251L294.829 18.7259H298.975ZM322.271 17.9091C322.271 19.8918 321.895 21.5786 321.143 22.9695C320.398 24.3603 319.38 25.4227 318.089 26.1566C316.805 26.8846 315.361 27.2486 313.757 27.2486C312.141 27.2486 310.691 26.8816 309.407 26.1477C308.122 25.4138 307.107 24.3514 306.362 22.9606C305.616 21.5697 305.243 19.8859 305.243 17.9091C305.243 15.9264 305.616 14.2396 306.362 12.8487C307.107 11.4579 308.122 10.3984 309.407 9.67045C310.691 8.93655 312.141 8.5696 313.757 8.5696C315.361 8.5696 316.805 8.93655 318.089 9.67045C319.38 10.3984 320.398 11.4579 321.143 12.8487C321.895 14.2396 322.271 15.9264 322.271 17.9091ZM318.373 17.9091C318.373 16.6248 318.181 15.5417 317.796 14.6598C317.418 13.7779 316.882 13.1091 316.189 12.6534C315.497 12.1977 314.686 11.9698 313.757 11.9698C312.828 11.9698 312.017 12.1977 311.324 12.6534C310.632 13.1091 310.093 13.7779 309.709 14.6598C309.33 15.5417 309.14 16.6248 309.14 17.9091C309.14 19.1934 309.33 20.2765 309.709 21.1584C310.093 22.0402 310.632 22.709 311.324 23.1648C312.017 23.6205 312.828 23.8484 313.757 23.8484C314.686 23.8484 315.497 23.6205 316.189 23.1648C316.882 22.709 317.418 22.0402 317.796 21.1584C318.181 20.2765 318.373 19.1934 318.373 17.9091Z" fill="black"/>
<path d="M76.6875 47H73.321V36.0909H76.8366C77.8949 36.0909 78.8004 36.3093 79.5533 36.7461C80.3061 37.1793 80.8832 37.8026 81.2844 38.6158C81.6857 39.4254 81.8864 40.3949 81.8864 41.5241C81.8864 42.6605 81.6839 43.6388 81.2791 44.4592C80.8743 45.2759 80.2848 45.9045 79.5107 46.3448C78.7365 46.7816 77.7955 47 76.6875 47ZM74.642 45.8281H76.6023C77.5043 45.8281 78.2518 45.6541 78.8448 45.3061C79.4379 44.9581 79.88 44.4627 80.1712 43.82C80.4624 43.1772 80.608 42.4119 80.608 41.5241C80.608 40.6435 80.4641 39.8853 80.1765 39.2496C79.8888 38.6104 79.4592 38.1204 78.8874 37.7795C78.3157 37.435 77.6037 37.2628 76.7514 37.2628H74.642V45.8281ZM85.4233 36.0909V47H84.1023V36.0909H85.4233ZM94.0379 38.8182C93.974 38.2784 93.7148 37.8594 93.2602 37.5611C92.8057 37.2628 92.2481 37.1136 91.5876 37.1136C91.1047 37.1136 90.6821 37.1918 90.3199 37.348C89.9612 37.5043 89.6807 37.7191 89.4782 37.9925C89.2794 38.266 89.18 38.5767 89.18 38.9247C89.18 39.2159 89.2492 39.4663 89.3877 39.6758C89.5297 39.8817 89.7108 40.054 89.931 40.1925C90.1512 40.3274 90.382 40.4393 90.6235 40.5281C90.865 40.6133 91.0869 40.6825 91.2893 40.7358L92.3973 41.0341C92.6814 41.1087 92.9974 41.2116 93.3454 41.343C93.697 41.4744 94.0326 41.6538 94.3522 41.881C94.6753 42.1048 94.9417 42.3924 95.1512 42.744C95.3607 43.0955 95.4655 43.527 95.4655 44.0384C95.4655 44.6278 95.311 45.1605 95.002 45.6364C94.6966 46.1122 94.2492 46.4904 93.6597 46.771C93.0738 47.0515 92.3618 47.1918 91.5237 47.1918C90.7425 47.1918 90.066 47.0657 89.4942 46.8136C88.926 46.5614 88.4786 46.2099 88.1519 45.7589C87.8287 45.3079 87.6459 44.7841 87.6032 44.1875H88.9669C89.0024 44.5994 89.1409 44.9403 89.3824 45.2102C89.6274 45.4766 89.9363 45.6754 90.3092 45.8068C90.6856 45.9347 91.0905 45.9986 91.5237 45.9986C92.028 45.9986 92.4807 45.9169 92.882 45.7536C93.2833 45.5866 93.6011 45.3558 93.8355 45.0611C94.0699 44.7628 94.1871 44.4148 94.1871 44.017C94.1871 43.6548 94.0858 43.3601 93.8834 43.1328C93.681 42.9055 93.4147 42.7209 93.0844 42.5788C92.7542 42.4368 92.3973 42.3125 92.0138 42.206L90.6714 41.8224C89.8192 41.5774 89.1444 41.2276 88.6473 40.7731C88.1501 40.3185 87.9015 39.7237 87.9015 38.9886C87.9015 38.3778 88.0667 37.8452 88.3969 37.3906C88.7307 36.9325 89.1782 36.5774 89.7393 36.3253C90.3039 36.0696 90.9342 35.9418 91.6302 35.9418C92.3334 35.9418 92.9584 36.0678 93.5052 36.32C94.0521 36.5685 94.4854 36.9094 94.805 37.3427C95.1281 37.7759 95.2986 38.2678 95.3163 38.8182H94.0379ZM97.6374 47V36.0909H104.221V37.2628H98.9585V40.9489H103.88V42.1207H98.9585V45.8281H104.306V47H97.6374ZM115.253 36.0909V47H113.974L108.03 38.4347H107.923V47H106.602V36.0909H107.881L113.847 44.6776H113.953V36.0909H115.253ZM109.287 35.1108L108.307 35.0682C108.307 34.5249 108.461 34.081 108.77 33.7365C109.083 33.3885 109.468 33.2145 109.926 33.2145C110.129 33.2145 110.308 33.25 110.464 33.321C110.62 33.3885 110.77 33.4666 110.912 33.5554C111.054 33.6442 111.199 33.7241 111.348 33.7951C111.501 33.8626 111.673 33.8963 111.865 33.8963C112.067 33.8963 112.238 33.8182 112.376 33.6619C112.518 33.5021 112.589 33.3104 112.589 33.0866L113.548 33.1719C113.548 33.7259 113.392 34.1662 113.08 34.4929C112.771 34.8196 112.387 34.983 111.929 34.983C111.684 34.983 111.482 34.9492 111.322 34.8817C111.162 34.8107 111.02 34.7308 110.896 34.642C110.771 34.5533 110.64 34.4751 110.501 34.4077C110.363 34.3366 110.192 34.3011 109.99 34.3011C109.788 34.3011 109.619 34.381 109.484 34.5408C109.353 34.6971 109.287 34.8871 109.287 35.1108ZM118.344 47H116.959L120.964 36.0909H122.328L126.334 47H124.949L121.689 37.8168H121.604L118.344 47ZM118.855 42.7386H124.437V43.9105H118.855V42.7386ZM131.399 47H128.033V36.0909H131.549C132.607 36.0909 133.512 36.3093 134.265 36.7461C135.018 37.1793 135.595 37.8026 135.996 38.6158C136.398 39.4254 136.598 40.3949 136.598 41.5241C136.598 42.6605 136.396 43.6388 135.991 44.4592C135.586 45.2759 134.997 45.9045 134.223 46.3448C133.448 46.7816 132.507 47 131.399 47ZM129.354 45.8281H131.314C132.216 45.8281 132.964 45.6541 133.557 45.3061C134.15 44.9581 134.592 44.4627 134.883 43.82C135.174 43.1772 135.32 42.4119 135.32 41.5241C135.32 40.6435 135.176 39.8853 134.888 39.2496C134.601 38.6104 134.171 38.1204 133.599 37.7795C133.028 37.435 132.316 37.2628 131.463 37.2628H129.354V45.8281ZM148.019 41.5455C148.019 42.696 147.811 43.6903 147.396 44.5284C146.98 45.3665 146.41 46.0128 145.686 46.4673C144.961 46.9219 144.134 47.1491 143.203 47.1491C142.273 47.1491 141.446 46.9219 140.721 46.4673C139.997 46.0128 139.427 45.3665 139.011 44.5284C138.596 43.6903 138.388 42.696 138.388 41.5455C138.388 40.3949 138.596 39.4006 139.011 38.5625C139.427 37.7244 139.997 37.0781 140.721 36.6236C141.446 36.169 142.273 35.9418 143.203 35.9418C144.134 35.9418 144.961 36.169 145.686 36.6236C146.41 37.0781 146.98 37.7244 147.396 38.5625C147.811 39.4006 148.019 40.3949 148.019 41.5455ZM146.74 41.5455C146.74 40.6009 146.582 39.8036 146.266 39.1538C145.954 38.5039 145.529 38.0121 144.993 37.6783C144.46 37.3445 143.864 37.1776 143.203 37.1776C142.543 37.1776 141.945 37.3445 141.408 37.6783C140.876 38.0121 140.451 38.5039 140.135 39.1538C139.823 39.8036 139.666 40.6009 139.666 41.5455C139.666 42.4901 139.823 43.2873 140.135 43.9371C140.451 44.587 140.876 45.0788 141.408 45.4126C141.945 45.7464 142.543 45.9134 143.203 45.9134C143.864 45.9134 144.46 45.7464 144.993 45.4126C145.529 45.0788 145.954 44.587 146.266 43.9371C146.582 43.2873 146.74 42.4901 146.74 41.5455ZM150.24 47V36.0909H153.926C154.778 36.0909 155.478 36.2365 156.025 36.5277C156.572 36.8153 156.976 37.2113 157.239 37.7156C157.502 38.2198 157.633 38.7933 157.633 39.4361C157.633 40.0788 157.502 40.6488 157.239 41.146C156.976 41.6431 156.573 42.0337 156.03 42.3178C155.487 42.5984 154.793 42.7386 153.947 42.7386H150.964V41.5455H153.905C154.487 41.5455 154.956 41.4602 155.311 41.2898C155.67 41.1193 155.929 40.8778 156.089 40.5653C156.252 40.2493 156.334 39.8729 156.334 39.4361C156.334 38.9993 156.252 38.6175 156.089 38.2908C155.925 37.9641 155.664 37.712 155.306 37.5344C154.947 37.3533 154.473 37.2628 153.883 37.2628H151.561V47H150.24ZM155.375 42.0994L158.06 47H156.525L153.883 42.0994H155.375ZM163.116 36.0909H164.629L167.654 41.1832H167.782L170.808 36.0909H172.32L168.379 42.5043V47H167.058V42.5043L163.116 36.0909ZM181.614 47H178.248V36.0909H181.763C182.822 36.0909 183.727 36.3093 184.48 36.7461C185.233 37.1793 185.81 37.8026 186.211 38.6158C186.612 39.4254 186.813 40.3949 186.813 41.5241C186.813 42.6605 186.611 43.6388 186.206 44.4592C185.801 45.2759 185.212 45.9045 184.437 46.3448C183.663 46.7816 182.722 47 181.614 47ZM179.569 45.8281H181.529C182.431 45.8281 183.179 45.6541 183.772 45.3061C184.365 44.9581 184.807 44.4627 185.098 43.82C185.389 43.1772 185.535 42.4119 185.535 41.5241C185.535 40.6435 185.391 39.8853 185.103 39.2496C184.816 38.6104 184.386 38.1204 183.814 37.7795C183.242 37.435 182.53 37.2628 181.678 37.2628H179.569V45.8281ZM189.029 47V36.0909H195.613V37.2628H190.35V40.9489H195.272V42.1207H190.35V45.8281H195.698V47H189.029ZM203.96 38.8182C203.896 38.2784 203.637 37.8594 203.182 37.5611C202.728 37.2628 202.17 37.1136 201.509 37.1136C201.027 37.1136 200.604 37.1918 200.242 37.348C199.883 37.5043 199.603 37.7191 199.4 37.9925C199.201 38.266 199.102 38.5767 199.102 38.9247C199.102 39.2159 199.171 39.4663 199.31 39.6758C199.452 39.8817 199.633 40.054 199.853 40.1925C200.073 40.3274 200.304 40.4393 200.545 40.5281C200.787 40.6133 201.009 40.6825 201.211 40.7358L202.319 41.0341C202.603 41.1087 202.919 41.2116 203.267 41.343C203.619 41.4744 203.954 41.6538 204.274 41.881C204.597 42.1048 204.864 42.3924 205.073 42.744C205.283 43.0955 205.387 43.527 205.387 44.0384C205.387 44.6278 205.233 45.1605 204.924 45.6364C204.619 46.1122 204.171 46.4904 203.582 46.771C202.996 47.0515 202.284 47.1918 201.446 47.1918C200.664 47.1918 199.988 47.0657 199.416 46.8136C198.848 46.5614 198.4 46.2099 198.074 45.7589C197.751 45.3079 197.568 44.7841 197.525 44.1875H198.889C198.924 44.5994 199.063 44.9403 199.304 45.2102C199.549 45.4766 199.858 45.6754 200.231 45.8068C200.608 45.9347 201.012 45.9986 201.446 45.9986C201.95 45.9986 202.403 45.9169 202.804 45.7536C203.205 45.5866 203.523 45.3558 203.757 45.0611C203.992 44.7628 204.109 44.4148 204.109 44.017C204.109 43.6548 204.008 43.3601 203.805 43.1328C203.603 42.9055 203.337 42.7209 203.006 42.5788C202.676 42.4368 202.319 42.3125 201.936 42.206L200.593 41.8224C199.741 41.5774 199.066 41.2276 198.569 40.7731C198.072 40.3185 197.823 39.7237 197.823 38.9886C197.823 38.3778 197.989 37.8452 198.319 37.3906C198.653 36.9325 199.1 36.5774 199.661 36.3253C200.226 36.0696 200.856 35.9418 201.552 35.9418C202.255 35.9418 202.88 36.0678 203.427 36.32C203.974 36.5685 204.407 36.9094 204.727 37.3427C205.05 37.7759 205.22 38.2678 205.238 38.8182H203.96ZM208.007 47H206.622L210.627 36.0909H211.991L215.997 47H214.612L211.352 37.8168H211.267L208.007 47ZM208.518 42.7386H214.1V43.9105H208.518V42.7386ZM217.696 47V36.0909H221.382C222.234 36.0909 222.934 36.2365 223.481 36.5277C224.028 36.8153 224.433 37.2113 224.695 37.7156C224.958 38.2198 225.089 38.7933 225.089 39.4361C225.089 40.0788 224.958 40.6488 224.695 41.146C224.433 41.6431 224.029 42.0337 223.486 42.3178C222.943 42.5984 222.249 42.7386 221.403 42.7386H218.42V41.5455H221.361C221.943 41.5455 222.412 41.4602 222.767 41.2898C223.126 41.1193 223.385 40.8778 223.545 40.5653C223.708 40.2493 223.79 39.8729 223.79 39.4361C223.79 38.9993 223.708 38.6175 223.545 38.2908C223.381 37.9641 223.12 37.712 222.762 37.5344C222.403 37.3533 221.929 37.2628 221.339 37.2628H219.017V47H217.696ZM222.831 42.0994L225.516 47H223.982L221.339 42.0994H222.831ZM227.291 47V36.0909H230.977C231.829 36.0909 232.529 36.2365 233.076 36.5277C233.622 36.8153 234.027 37.2113 234.29 37.7156C234.553 38.2198 234.684 38.7933 234.684 39.4361C234.684 40.0788 234.553 40.6488 234.29 41.146C234.027 41.6431 233.624 42.0337 233.081 42.3178C232.538 42.5984 231.843 42.7386 230.998 42.7386H228.015V41.5455H230.956C231.538 41.5455 232.007 41.4602 232.362 41.2898C232.72 41.1193 232.98 40.8778 233.139 40.5653C233.303 40.2493 233.384 39.8729 233.384 39.4361C233.384 38.9993 233.303 38.6175 233.139 38.2908C232.976 37.9641 232.715 37.712 232.356 37.5344C231.998 37.3533 231.524 37.2628 230.934 37.2628H228.612V47H227.291ZM232.426 42.0994L235.11 47H233.576L230.934 42.0994H232.426ZM246.09 41.5455C246.09 42.696 245.882 43.6903 245.467 44.5284C245.051 45.3665 244.481 46.0128 243.757 46.4673C243.032 46.9219 242.205 47.1491 241.275 47.1491C240.344 47.1491 239.517 46.9219 238.792 46.4673C238.068 46.0128 237.498 45.3665 237.083 44.5284C236.667 43.6903 236.459 42.696 236.459 41.5455C236.459 40.3949 236.667 39.4006 237.083 38.5625C237.498 37.7244 238.068 37.0781 238.792 36.6236C239.517 36.169 240.344 35.9418 241.275 35.9418C242.205 35.9418 243.032 36.169 243.757 36.6236C244.481 37.0781 245.051 37.7244 245.467 38.5625C245.882 39.4006 246.09 40.3949 246.09 41.5455ZM244.812 41.5455C244.812 40.6009 244.654 39.8036 244.338 39.1538C244.025 38.5039 243.601 38.0121 243.064 37.6783C242.532 37.3445 241.935 37.1776 241.275 37.1776C240.614 37.1776 240.016 37.3445 239.48 37.6783C238.947 38.0121 238.523 38.5039 238.206 39.1538C237.894 39.8036 237.738 40.6009 237.738 41.5455C237.738 42.4901 237.894 43.2873 238.206 43.9371C238.523 44.587 238.947 45.0788 239.48 45.4126C240.016 45.7464 240.614 45.9134 241.275 45.9134C241.935 45.9134 242.532 45.7464 243.064 45.4126C243.601 45.0788 244.025 44.587 244.338 43.9371C244.654 43.2873 244.812 42.4901 244.812 41.5455ZM248.311 47V36.0909H249.632V45.8281H254.703V47H248.311ZM256.749 47V36.0909H258.07V45.8281H263.141V47H256.749ZM266.322 47H264.937L268.943 36.0909H270.307L274.312 47H272.927L269.667 37.8168H269.582L266.322 47ZM266.834 42.7386H272.416V43.9105H266.834V42.7386ZM279.378 47H276.011V36.0909H279.527C280.585 36.0909 281.491 36.3093 282.244 36.7461C282.997 37.1793 283.574 37.8026 283.975 38.6158C284.376 39.4254 284.577 40.3949 284.577 41.5241C284.577 42.6605 284.374 43.6388 283.97 44.4592C283.565 45.2759 282.975 45.9045 282.201 46.3448C281.427 46.7816 280.486 47 279.378 47ZM277.332 45.8281H279.293C280.195 45.8281 280.942 45.6541 281.535 45.3061C282.128 44.9581 282.57 44.4627 282.862 43.82C283.153 43.1772 283.298 42.4119 283.298 41.5241C283.298 40.6435 283.155 39.8853 282.867 39.2496C282.579 38.6104 282.15 38.1204 281.578 37.7795C281.006 37.435 280.294 37.2628 279.442 37.2628H277.332V45.8281ZM295.997 41.5455C295.997 42.696 295.79 43.6903 295.374 44.5284C294.959 45.3665 294.389 46.0128 293.664 46.4673C292.94 46.9219 292.112 47.1491 291.182 47.1491C290.252 47.1491 289.424 46.9219 288.7 46.4673C287.975 46.0128 287.405 45.3665 286.99 44.5284C286.574 43.6903 286.367 42.696 286.367 41.5455C286.367 40.3949 286.574 39.4006 286.99 38.5625C287.405 37.7244 287.975 37.0781 288.7 36.6236C289.424 36.169 290.252 35.9418 291.182 35.9418C292.112 35.9418 292.94 36.169 293.664 36.6236C294.389 37.0781 294.959 37.7244 295.374 38.5625C295.79 39.4006 295.997 40.3949 295.997 41.5455ZM294.719 41.5455C294.719 40.6009 294.561 39.8036 294.245 39.1538C293.932 38.5039 293.508 38.0121 292.972 37.6783C292.439 37.3445 291.842 37.1776 291.182 37.1776C290.521 37.1776 289.923 37.3445 289.387 37.6783C288.854 38.0121 288.43 38.5039 288.114 39.1538C287.801 39.8036 287.645 40.6009 287.645 41.5455C287.645 42.4901 287.801 43.2873 288.114 43.9371C288.43 44.587 288.854 45.0788 289.387 45.4126C289.923 45.7464 290.521 45.9134 291.182 45.9134C291.842 45.9134 292.439 45.7464 292.972 45.4126C293.508 45.0788 293.932 44.587 294.245 43.9371C294.561 43.2873 294.719 42.4901 294.719 41.5455ZM298.218 47V36.0909H301.905C302.757 36.0909 303.456 36.2365 304.003 36.5277C304.55 36.8153 304.955 37.2113 305.218 37.7156C305.481 38.2198 305.612 38.7933 305.612 39.4361C305.612 40.0788 305.481 40.6488 305.218 41.146C304.955 41.6431 304.552 42.0337 304.009 42.3178C303.465 42.5984 302.771 42.7386 301.926 42.7386H298.943V41.5455H301.883C302.466 41.5455 302.934 41.4602 303.29 41.2898C303.648 41.1193 303.907 40.8778 304.067 40.5653C304.231 40.2493 304.312 39.8729 304.312 39.4361C304.312 38.9993 304.231 38.6175 304.067 38.2908C303.904 37.9641 303.643 37.712 303.284 37.5344C302.926 37.3533 302.451 37.2628 301.862 37.2628H299.54V47H298.218ZM303.353 42.0994L306.038 47H304.504L301.862 42.0994H303.353ZM314.013 47L311.031 36.0909H312.373L314.653 44.9759H314.759L317.082 36.0909H318.573L320.896 44.9759H321.002L323.282 36.0909H324.624L321.641 47H320.278L317.87 38.3068H317.785L315.377 47H314.013ZM326.27 47V36.0909H332.854V37.2628H327.591V40.9489H332.513V42.1207H327.591V45.8281H332.939V47H326.27ZM335.235 47V36.0909H339.049C339.809 36.0909 340.436 36.2223 340.929 36.4851C341.423 36.7443 341.79 37.0941 342.032 37.5344C342.273 37.9712 342.394 38.456 342.394 38.9886C342.394 39.4574 342.311 39.8445 342.144 40.1499C341.98 40.4553 341.764 40.6967 341.494 40.8743C341.228 41.0518 340.938 41.1832 340.626 41.2685V41.375C340.96 41.3963 341.295 41.5135 341.632 41.7266C341.97 41.9396 342.252 42.245 342.479 42.6428C342.707 43.0405 342.82 43.527 342.82 44.1023C342.82 44.6491 342.696 45.141 342.447 45.5778C342.199 46.0146 341.806 46.3608 341.27 46.6165C340.734 46.8722 340.036 47 339.177 47H335.235ZM336.556 45.8281H339.177C340.04 45.8281 340.652 45.6612 341.015 45.3274C341.38 44.9901 341.563 44.5817 341.563 44.1023C341.563 43.733 341.469 43.392 341.281 43.0795C341.093 42.7635 340.825 42.5114 340.477 42.3232C340.129 42.1314 339.717 42.0355 339.241 42.0355H336.556V45.8281ZM336.556 40.8849H339.006C339.404 40.8849 339.763 40.8068 340.082 40.6506C340.406 40.4943 340.661 40.2741 340.849 39.9901C341.041 39.706 341.137 39.3722 341.137 38.9886C341.137 38.5092 340.97 38.1026 340.636 37.7688C340.303 37.4315 339.773 37.2628 339.049 37.2628H336.556V40.8849Z" fill="#B01C22"/>
</svg>
