<svg width="491" height="310" viewBox="0 0 491 310" fill="none" xmlns="http://www.w3.org/2000/svg">
<path d="M455.613 309.049H318.267C313.27 309.044 308.479 307.05 304.946 303.505C301.412 299.96 299.425 295.154 299.419 290.141V72.7971C299.425 67.7841 301.412 62.9781 304.946 59.4334C308.479 55.8887 313.27 53.8948 318.267 53.8891H455.613C460.61 53.8948 465.401 55.8887 468.934 59.4334C472.467 62.9781 474.455 67.7841 474.46 72.7971V290.141C474.455 295.154 472.467 299.96 468.934 303.505C465.4 307.05 460.61 309.044 455.613 309.049Z" fill="#E6E6E6"/>
<path d="M457.89 65.1718H318.008C316.443 65.1738 314.944 65.798 313.838 66.9076C312.732 68.0172 312.109 69.5216 312.107 71.0908V291.269C312.11 292.838 312.732 294.342 313.838 295.452C314.944 296.561 316.443 297.186 318.008 297.188H457.89C459.455 297.186 460.954 296.562 462.06 295.452C463.166 294.343 463.789 292.838 463.791 291.269V71.0908C463.789 69.5216 463.166 68.0172 462.06 66.9076C460.954 65.798 459.455 65.1738 457.89 65.1718Z" fill="white"/>
<path d="M321.624 53.8892C321.624 53.5057 321.776 53.1381 322.047 52.8669C322.317 52.5957 322.683 52.4432 323.066 52.4427H332.87C333.253 52.4427 333.619 52.5951 333.89 52.8664C334.16 53.1377 334.312 53.5056 334.312 53.8892C334.312 54.2728 334.16 54.6408 333.89 54.912C333.619 55.1833 333.253 55.3357 332.87 55.3357H323.066C322.683 55.3352 322.317 55.1827 322.047 54.9115C321.776 54.6403 321.624 54.2727 321.624 53.8892Z" fill="#E6E6E6"/>
<path d="M337.773 53.8892C337.773 53.5057 337.925 53.1381 338.196 52.8669C338.466 52.5957 338.832 52.4432 339.215 52.4427H349.019C349.402 52.4427 349.768 52.5951 350.039 52.8664C350.309 53.1377 350.461 53.5056 350.461 53.8892C350.461 54.2728 350.309 54.6408 350.039 54.912C349.768 55.1833 349.402 55.3357 349.019 55.3357H339.215C338.832 55.3352 338.466 55.1827 338.196 54.9115C337.925 54.6404 337.773 54.2727 337.773 53.8892Z" fill="#E6E6E6"/>
<path d="M434.665 53.8892C434.665 53.5057 434.818 53.1381 435.088 52.8669C435.358 52.5957 435.725 52.4432 436.107 52.4427H445.912C446.294 52.4427 446.661 52.5951 446.931 52.8664C447.201 53.1377 447.353 53.5056 447.353 53.8892C447.353 54.2728 447.201 54.6408 446.931 54.912C446.661 55.1833 446.294 55.3357 445.912 55.3357H436.107C435.725 55.3352 435.358 55.1827 435.088 54.9115C434.818 54.6404 434.665 54.2727 434.665 53.8892Z" fill="#E6E6E6"/>
<path d="M407.333 292.652C407.333 294.173 407.304 295.689 407.235 297.188H318.008C316.443 297.186 314.944 296.561 313.838 295.452C312.732 294.342 312.11 292.838 312.107 291.269V180.445C338.679 184.752 362.854 198.408 380.303 218.968C397.751 239.529 407.334 265.649 407.333 292.652Z" fill="#1F1F1F"/>
<path d="M425.453 139.621H349.876C348.362 139.621 347.134 140.853 347.134 142.372V145.804C347.134 147.323 348.362 148.555 349.876 148.555H425.453C426.968 148.555 428.195 147.323 428.195 145.804V142.372C428.195 140.853 426.968 139.621 425.453 139.621Z" fill="#1F1F1F"/>
<path d="M425.453 157.489H349.876C348.362 157.489 347.134 158.72 347.134 160.239V163.672C347.134 165.191 348.362 166.422 349.876 166.422H425.453C426.968 166.422 428.195 165.191 428.195 163.672V160.239C428.195 158.72 426.968 157.489 425.453 157.489Z" fill="#1F1F1F"/>
<path d="M331.717 79.4972C333.408 79.4972 334.779 78.091 334.779 76.3565C334.779 74.6219 333.408 73.2158 331.717 73.2158C330.025 73.2158 328.654 74.6219 328.654 76.3565C328.654 78.091 330.025 79.4972 331.717 79.4972Z" fill="#3F3D56"/>
<path d="M342.296 79.4972C343.987 79.4972 345.358 78.091 345.358 76.3565C345.358 74.6219 343.987 73.2158 342.296 73.2158C340.605 73.2158 339.234 74.6219 339.234 76.3565C339.234 78.091 340.605 79.4972 342.296 79.4972Z" fill="#3F3D56"/>
<path d="M352.875 79.4972C354.566 79.4972 355.938 78.091 355.938 76.3565C355.938 74.6219 354.566 73.2158 352.875 73.2158C351.184 73.2158 349.813 74.6219 349.813 76.3565C349.813 78.091 351.184 79.4972 352.875 79.4972Z" fill="#3F3D56"/>
<path d="M445.977 74.4291H439.124C438.988 74.4318 438.859 74.4878 438.764 74.5852C438.669 74.6825 438.615 74.8134 438.615 74.9497C438.615 75.086 438.669 75.2169 438.764 75.3142C438.859 75.4115 438.988 75.4676 439.124 75.4703H445.977C446.113 75.4676 446.242 75.4115 446.338 75.3142C446.433 75.2169 446.486 75.086 446.486 74.9497C446.486 74.8134 446.433 74.6825 446.338 74.5852C446.242 74.4878 446.113 74.4318 445.977 74.4291Z" fill="#B01C22"/>
<path d="M445.977 76.3834H439.124C438.988 76.3861 438.859 76.4422 438.764 76.5395C438.669 76.6368 438.615 76.7677 438.615 76.904C438.615 77.0403 438.669 77.1712 438.764 77.2685C438.859 77.3659 438.988 77.4219 439.124 77.4246H445.977C446.113 77.4219 446.242 77.3659 446.338 77.2685C446.433 77.1712 446.486 77.0403 446.486 76.904C446.486 76.7677 446.433 76.6368 446.338 76.5395C446.242 76.4422 446.113 76.3861 445.977 76.3834Z" fill="#B01C22"/>
<path d="M445.977 78.3349H439.124C438.988 78.3376 438.859 78.3937 438.764 78.491C438.669 78.5883 438.615 78.7192 438.615 78.8555C438.615 78.9918 438.669 79.1227 438.764 79.22C438.859 79.3174 438.988 79.3734 439.124 79.3761H445.977C446.113 79.3734 446.242 79.3174 446.338 79.22C446.433 79.1227 446.486 78.9918 446.486 78.8555C446.486 78.7192 446.433 78.5883 446.338 78.491C446.242 78.3937 446.113 78.3376 445.977 78.3349Z" fill="#B01C22"/>
<path d="M241.708 180.528H168.715C167.682 180.529 166.693 180.942 165.963 181.676C165.234 182.409 164.825 183.403 164.826 184.439V300.116H245.606V184.439C245.607 183.925 245.506 183.416 245.31 182.942C245.114 182.467 244.827 182.036 244.465 181.673C244.103 181.309 243.673 181.021 243.2 180.825C242.727 180.628 242.22 180.527 241.708 180.528ZM205.457 246.254C203.174 246.244 200.988 245.329 199.374 243.71C197.76 242.09 196.848 239.897 196.838 237.607V224.265C196.84 221.973 197.748 219.775 199.365 218.155C200.981 216.535 203.172 215.625 205.457 215.625C207.741 215.625 209.933 216.535 211.549 218.155C213.165 219.775 214.074 221.973 214.076 224.265V237.607C214.065 239.897 213.154 242.091 211.54 243.71C209.926 245.329 207.739 246.244 205.457 246.254Z" fill="#E6E6E6"/>
<path d="M164.575 296.416V307.577C164.577 308.155 164.806 308.71 165.214 309.118C165.621 309.527 166.174 309.758 166.75 309.759H243.682C244.258 309.756 244.809 309.525 245.217 309.117C245.624 308.708 245.854 308.155 245.857 307.577V296.416L164.575 296.416Z" fill="#CCCCCC"/>
<path d="M362.577 0H50.5613C47.8806 0.0042784 45.3109 1.0745 43.4154 2.97612C41.5198 4.87775 40.453 7.45569 40.4487 10.145V221.371C40.4513 224.061 41.5176 226.64 43.4135 228.542C45.3094 230.444 47.8801 231.513 50.5613 231.516H362.577C365.258 231.513 367.829 230.444 369.725 228.542C371.621 226.64 372.687 224.061 372.69 221.371V10.145C372.685 7.45569 371.619 4.87775 369.723 2.97612C367.827 1.0745 365.258 0.00427673 362.577 0Z" fill="#E6E6E6"/>
<path d="M359.973 7.32746H53.1682C51.7329 7.33059 50.3574 7.90476 49.3435 8.92401C48.3296 9.94326 47.7601 11.3244 47.76 12.7643V218.755C47.7625 220.193 48.3331 221.571 49.3467 222.588C50.3604 223.605 51.7346 224.178 53.1682 224.18H359.973C361.406 224.178 362.78 223.605 363.794 222.588C364.808 221.571 365.378 220.193 365.381 218.755V12.7643C365.381 11.3244 364.811 9.94326 363.797 8.92401C362.783 7.90476 361.408 7.33059 359.973 7.32746Z" fill="white"/>
<path d="M365.381 12.7643V218.755C365.378 220.193 364.808 221.571 363.794 222.588C362.78 223.605 361.406 224.178 359.973 224.18H251.787C239.818 213.045 230 199.792 222.823 185.085C222.351 184.137 221.901 183.178 221.474 182.208C214.935 167.973 210.975 152.684 209.78 137.056C209.702 136.097 209.634 135.138 209.589 134.168C209.443 131.686 209.376 129.171 209.376 126.644C209.354 109.84 212.517 93.1852 218.697 77.5663C219.068 76.5962 219.461 75.6374 219.866 74.6786C232.302 45.3658 254.773 21.4783 283.224 7.32746H359.973C361.408 7.33059 362.783 7.90476 363.797 8.92401C364.811 9.94326 365.381 11.3244 365.381 12.7643Z" fill="#1F1F1F"/>
<path d="M62.2991 27.0359C65.9941 27.0359 68.9895 23.9639 68.9895 20.1744C68.9895 16.3849 65.9941 13.3129 62.2991 13.3129C58.6041 13.3129 55.6086 16.3849 55.6086 20.1744C55.6086 23.9639 58.6041 27.0359 62.2991 27.0359Z" fill="#B01C22"/>
<path d="M85.4116 27.0359C89.1066 27.0359 92.1021 23.9639 92.1021 20.1744C92.1021 16.3849 89.1066 13.3129 85.4116 13.3129C81.7166 13.3129 78.7212 16.3849 78.7212 20.1744C78.7212 23.9639 81.7166 27.0359 85.4116 27.0359Z" fill="#B01C22"/>
<path d="M108.524 27.0359C112.219 27.0359 115.215 23.9639 115.215 20.1744C115.215 16.3849 112.219 13.3129 108.524 13.3129C104.829 13.3129 101.834 16.3849 101.834 20.1744C101.834 23.9639 104.829 27.0359 108.524 27.0359Z" fill="#B01C22"/>
<path d="M353.284 15.7143H336.866C336.541 15.7207 336.231 15.855 336.003 16.0881C335.775 16.3213 335.647 16.6349 335.647 16.9614C335.647 17.2879 335.775 17.6015 336.003 17.8347C336.231 18.0678 336.541 18.2021 336.866 18.2085H353.284C353.609 18.2021 353.919 18.0678 354.147 17.8347C354.375 17.6015 354.503 17.2879 354.503 16.9614C354.503 16.6349 354.375 16.3213 354.147 16.0881C353.919 15.855 353.609 15.7207 353.284 15.7143Z" fill="#B01C22"/>
<path d="M353.284 20.3959H336.866C336.541 20.4023 336.231 20.5366 336.003 20.7697C335.775 21.0029 335.647 21.3164 335.647 21.643C335.647 21.9695 335.775 22.2831 336.003 22.5162C336.231 22.7494 336.541 22.8836 336.866 22.8901H353.284C353.609 22.8836 353.919 22.7494 354.147 22.5162C354.375 22.2831 354.503 21.9695 354.503 21.643C354.503 21.3164 354.375 21.0029 354.147 20.7697C353.919 20.5366 353.609 20.4023 353.284 20.3959Z" fill="#B01C22"/>
<path d="M353.284 25.0706H336.866C336.541 25.0771 336.231 25.2113 336.003 25.4445C335.775 25.6777 335.647 25.9912 335.647 26.3177C335.647 26.6443 335.775 26.9578 336.003 27.191C336.231 27.4242 336.541 27.5584 336.866 27.5649H353.284C353.609 27.5584 353.919 27.4242 354.147 27.191C354.375 26.9578 354.503 26.6443 354.503 26.3177C354.503 25.9912 354.375 25.6777 354.147 25.4445C353.919 25.2113 353.609 25.0771 353.284 25.0706Z" fill="#B01C22"/>
<path d="M168.547 122.194H82.0551C80.5408 122.194 79.3132 123.426 79.3132 124.945V129.232C79.3132 130.751 80.5408 131.983 82.0551 131.983H168.547C170.061 131.983 171.289 130.751 171.289 129.232V124.945C171.289 123.426 170.061 122.194 168.547 122.194Z" fill="#1F1F1F"/>
<path d="M168.547 141.771H82.0551C80.5408 141.771 79.3132 143.003 79.3132 144.522V148.809C79.3132 150.328 80.5408 151.56 82.0551 151.56H168.547C170.061 151.56 171.289 150.328 171.289 148.809V144.522C171.289 143.003 170.061 141.771 168.547 141.771Z" fill="#1F1F1F"/>
<path d="M86.8203 212.37C86.8271 216.402 86.1111 220.403 84.7065 224.18H53.1682C51.7346 224.178 50.3604 223.605 49.3467 222.588C48.3331 221.571 47.7625 220.193 47.76 218.755V178.96C49.5222 178.674 51.3044 178.531 53.0895 178.531C57.5192 178.531 61.9055 179.406 65.9981 181.107C70.0906 182.807 73.8092 185.3 76.9414 188.442C80.0737 191.584 82.5583 195.315 84.2533 199.42C85.9483 203.526 86.8206 207.926 86.8203 212.37Z" fill="#F48C65"/>
<path d="M114.362 146.83V114.661C114.362 109.723 112.407 104.987 108.927 101.496C105.446 98.0043 100.726 96.0427 95.8037 96.0427H27.8683C22.9462 96.0427 18.2257 98.0043 14.7453 101.496C11.2648 104.987 9.30957 109.723 9.30957 114.661V291.14C9.30957 296.078 11.2649 300.814 14.7453 304.306C18.2257 307.797 22.9462 309.759 27.8682 309.759H95.8037C98.2408 309.759 100.654 309.277 102.906 308.341C105.157 307.406 107.203 306.034 108.927 304.306C110.65 302.577 112.017 300.524 112.95 298.265C113.882 296.006 114.362 293.585 114.362 291.14V169.728C114.673 169.728 114.97 169.604 115.19 169.384C115.41 169.164 115.533 168.865 115.533 168.554V148.004C115.533 147.692 115.41 147.394 115.19 147.174C114.971 146.953 114.673 146.83 114.362 146.83Z" fill="#E6E6E6"/>
<path d="M110.413 114.789V291.013C110.413 294.674 108.974 298.187 106.407 300.789C103.841 303.391 100.355 304.871 96.7064 304.91C96.656 304.915 96.6053 304.917 96.5547 304.916H28.2886C24.6134 304.916 21.0887 303.451 18.4899 300.844C15.8911 298.236 14.431 294.701 14.4307 291.013V114.789C14.431 111.102 15.8911 107.566 18.4899 104.959C21.0887 102.352 24.6134 100.887 28.2886 100.886H36.573C36.1658 101.89 36.0106 102.978 36.1211 104.056C36.2316 105.133 36.6044 106.167 37.2067 107.067C37.809 107.966 38.6224 108.703 39.5752 109.212C40.5281 109.722 41.5912 109.989 42.6711 109.99H81.5909C82.6698 109.987 83.7315 109.718 84.6829 109.208C85.6342 108.697 86.4462 107.96 87.0475 107.062C87.6489 106.163 88.0213 105.13 88.132 104.053C88.2427 102.977 88.0884 101.889 87.6825 100.886H96.5547C100.23 100.887 103.755 102.352 106.353 104.959C108.952 107.566 110.412 111.102 110.413 114.789Z" fill="white"/>
<path d="M96.877 299.477C96.877 301.302 96.8201 303.113 96.7064 304.91C96.656 304.915 96.6053 304.917 96.5547 304.916H28.2886C24.6134 304.916 21.0887 303.451 18.4899 300.844C15.8911 298.236 14.431 294.7 14.4307 291.013V212.48C36.6729 213.605 57.6336 223.262 72.9787 239.454C88.3237 255.646 96.8795 277.135 96.877 299.477Z" fill="#1F1F1F"/>
<path d="M9.68502 164.826C9.26618 164.825 8.86464 164.658 8.56848 164.361C8.27232 164.064 8.10572 163.661 8.10522 163.241V152.464C8.10522 152.044 8.27167 151.64 8.56794 151.343C8.86421 151.046 9.26603 150.879 9.68502 150.879C10.104 150.879 10.5058 151.046 10.8021 151.343C11.0984 151.64 11.2648 152.044 11.2648 152.464V163.241C11.2643 163.661 11.0977 164.064 10.8016 164.361C10.5054 164.658 10.1039 164.825 9.68502 164.826Z" fill="#E6E6E6"/>
<path d="M93.9768 175.798H30.8661C29.3518 175.798 28.1243 177.029 28.1243 178.548V182.836C28.1243 184.355 29.3518 185.586 30.8661 185.586H93.9768C95.4911 185.586 96.7186 184.355 96.7186 182.836V178.548C96.7186 177.029 95.4911 175.798 93.9768 175.798Z" fill="#1F1F1F"/>
<path d="M93.9768 195.375H30.8661C29.3518 195.375 28.1243 196.606 28.1243 198.126V202.413C28.1243 203.932 29.3518 205.163 30.8661 205.163H93.9768C95.4911 205.163 96.7186 203.932 96.7186 202.413V198.126C96.7186 196.606 95.4911 195.375 93.9768 195.375Z" fill="#1F1F1F"/>
<path d="M9.36886 143.906C8.95002 143.905 8.54848 143.738 8.25232 143.441C7.95616 143.144 7.78956 142.741 7.78906 142.321V131.544C7.78906 131.123 7.95551 130.72 8.25178 130.423C8.54805 130.126 8.94987 129.959 9.36886 129.959C9.78784 129.959 10.1897 130.126 10.4859 130.423C10.7822 130.72 10.9487 131.123 10.9487 131.544V142.321C10.9482 142.741 10.7816 143.144 10.4854 143.441C10.1892 143.738 9.78769 143.905 9.36886 143.906Z" fill="#E6E6E6"/>
<path d="M51.3914 102.699C51.3919 102.279 51.5585 101.876 51.8546 101.579C52.1508 101.282 52.5523 101.115 52.9712 101.114H63.7138C64.1327 101.114 64.5346 101.281 64.8308 101.579C65.1271 101.876 65.2935 102.279 65.2935 102.699C65.2935 103.12 65.1271 103.523 64.8308 103.82C64.5346 104.117 64.1327 104.284 63.7138 104.284H52.9712C52.5523 104.284 52.1508 104.116 51.8546 103.819C51.5585 103.522 51.3919 103.119 51.3914 102.699Z" fill="white"/>
<path d="M9.68502 183.21C9.26618 183.21 8.86464 183.043 8.56848 182.746C8.27232 182.448 8.10572 182.046 8.10522 181.625V170.848C8.10522 170.428 8.27167 170.025 8.56794 169.728C8.86421 169.43 9.26603 169.263 9.68502 169.263C10.104 169.263 10.5058 169.43 10.8021 169.728C11.0984 170.025 11.2648 170.428 11.2648 170.848V181.625C11.2643 182.046 11.0977 182.448 10.8016 182.746C10.5054 183.043 10.1039 183.21 9.68502 183.21Z" fill="#E6E6E6"/>
<path d="M69.717 104.284C70.5895 104.284 71.2968 103.574 71.2968 102.699C71.2968 101.824 70.5895 101.114 69.717 101.114C68.8445 101.114 68.1372 101.824 68.1372 102.699C68.1372 103.574 68.8445 104.284 69.717 104.284Z" fill="white"/>
<path d="M328.678 124.317L348.987 131.732L359.794 150.51L356.041 171.863L339.484 185.8H317.871L301.315 171.863L297.562 150.51L308.368 131.732L328.678 124.317Z" fill="#FEFEFE"/>
<path d="M263.672 87.8571L279.246 93.5389L287.533 107.926L284.655 124.286L271.959 134.964H255.385L242.689 124.286L239.811 107.926L248.098 93.5389L263.672 87.8571Z" fill="#FEFEFE"/>
<path d="M326.383 64.2857L334.628 67.2937L339.016 74.9102L337.492 83.5714L330.77 89.2246H321.996L315.274 83.5714L313.751 74.9102L318.138 67.2937L326.383 64.2857Z" fill="#FEFEFE"/>
<path d="M47.7098 251.043L60.0985 255.567L66.6905 267.021L64.4011 280.046L54.3017 288.548H41.1178L31.0184 280.046L28.7291 267.021L35.321 255.567L47.7098 251.043Z" fill="#FEFEFE"/>
<path d="M354.822 245.338L367.211 249.861L373.803 261.315L371.513 274.341L361.414 282.842H348.23L338.13 274.341L335.841 261.315L342.433 249.861L354.822 245.338Z" fill="#FEFEFE"/>
<path d="M101.518 113.476H94.6645C94.5287 113.479 94.3993 113.535 94.3042 113.633C94.209 113.73 94.1558 113.861 94.1558 113.997C94.1558 114.133 94.209 114.264 94.3042 114.362C94.3993 114.459 94.5287 114.515 94.6645 114.518H101.518C101.654 114.515 101.783 114.459 101.878 114.362C101.973 114.264 102.027 114.133 102.027 113.997C102.027 113.861 101.973 113.73 101.878 113.633C101.783 113.535 101.654 113.479 101.518 113.476Z" fill="#B01C22"/>
<path d="M101.518 115.431H94.6645C94.5287 115.433 94.3993 115.489 94.3042 115.587C94.209 115.684 94.1558 115.815 94.1558 115.951C94.1558 116.088 94.209 116.219 94.3042 116.316C94.3993 116.413 94.5287 116.469 94.6645 116.472H101.518C101.654 116.469 101.783 116.413 101.878 116.316C101.973 116.219 102.027 116.088 102.027 115.951C102.027 115.815 101.973 115.684 101.878 115.587C101.783 115.489 101.654 115.433 101.518 115.431Z" fill="#B01C22"/>
<path d="M101.518 117.382H94.6645C94.5287 117.385 94.3993 117.441 94.3042 117.538C94.209 117.636 94.1558 117.767 94.1558 117.903C94.1558 118.039 94.209 118.17 94.3042 118.267C94.3993 118.365 94.5287 118.421 94.6645 118.423H101.518C101.654 118.421 101.783 118.365 101.878 118.267C101.973 118.17 102.027 118.039 102.027 117.903C102.027 117.767 101.973 117.636 101.878 117.538C101.783 117.441 101.654 117.385 101.518 117.382Z" fill="#B01C22"/>
</svg>
