<svg width="288" height="244" viewBox="0 0 288 244" fill="none" xmlns="http://www.w3.org/2000/svg">
<path fill-rule="evenodd" clip-rule="evenodd" d="M131.662 60.2388C131.553 59.8149 131.44 59.3835 131.322 58.9452L131.307 58.9478C131.247 58.5832 130.996 57.4676 130.471 55.8791L130.438 55.8111C127.362 45.3789 122.13 32.0259 114.996 21.005C106.686 8.1666 95.6435 -1.726 82.2721 0.252809L82.3748 0.943248L82.3715 0.943237L82.2288 0.306473C78.6397 1.10617 75.6534 2.64728 73.2059 4.53394C73.0214 4.67402 72.8407 4.8154 72.6638 4.95789C71.8137 5.32288 71.0494 6.03573 70.4344 6.75837C70.0427 7.21859 69.6881 7.71099 69.385 8.18002C69.1791 8.42761 68.9825 8.67473 68.795 8.92056C66.2423 12.1589 64.7812 15.5415 64.2012 17.7665L64.1791 17.7639C62.5132 31.7491 72.6855 43.0284 85.7815 51.3945C98.4236 59.4706 113.974 64.9576 124.909 67.6643C125.285 67.7447 125.796 67.8361 126.258 67.8705L128.453 67.8734L135.304 74.7052L83.7066 125.553C81.5719 127.657 81.5515 131.088 83.661 133.217L86.4645 136.046L85.3015 137.205C83.2067 138.98 79.769 141.357 76.2438 142.218C75.5222 142.394 75.1942 142.509 75.1766 142.575C74.1764 142.966 73.2389 143.565 72.4306 144.371L70.8141 145.983C67.6734 149.115 67.6734 154.193 70.8141 157.325L72.1438 158.651C75.2846 161.783 80.3768 161.783 83.5175 158.651L85.134 157.039C85.9911 156.184 86.6143 155.185 87.0036 154.119C87.0705 154.049 87.1746 153.718 87.3238 153.063C88.292 148.816 91.4438 144.664 93.1413 142.846L93.1725 142.815L95.5343 145.198C97.6438 147.327 101.084 147.347 103.219 145.243L154.067 95.1341L134.466 75.5876L135.328 74.7285L163.506 102.828L163.655 102.679C165.092 106.651 169.67 113.14 176.099 120.201L184.178 129.79C184.479 130.373 184.875 130.92 185.365 131.408L197.645 143.654C200.191 146.193 204.32 146.193 206.867 143.654L208.032 142.492C210.579 139.952 210.579 135.835 208.032 133.296L195.752 121.05C195.38 120.679 194.974 120.362 194.545 120.1L185.119 111.875C177.455 104.888 170.422 100.027 166.474 98.9131L138.775 71.2912L139.263 70.8043L138.772 71.2883L131.931 64.4668L131.935 61.7891L131.934 61.7502C131.932 61.6372 131.929 61.5339 131.912 61.3882C131.888 61.179 131.833 60.8899 131.701 60.3899L131.695 60.3645C131.687 60.3372 131.68 60.3093 131.672 60.2808C131.668 60.2671 131.666 60.2528 131.662 60.2388ZM130.82 63.3583L130.846 63.3844L130.846 63.3323L130.82 63.3583ZM129.42 56.2013C129.924 57.9137 130.369 59.5464 130.754 61.0757L130.919 61.7289L130.916 61.7321C124.813 50.3568 114.754 34.0383 104.144 21.5892C98.7855 15.3019 93.2601 9.96944 88.0089 6.76789C83.9887 4.31685 80.0513 3.07145 76.4549 3.69131C77.0727 3.34081 77.7247 3.00726 78.4123 2.69504L78.4162 2.7056C82.7948 1.12636 87.6049 2.38799 92.5946 5.65405C97.5805 8.9177 102.656 14.1284 107.495 20.2558C116.333 31.4474 124.303 45.5968 129.42 56.2013ZM127.289 49.5403C124.17 40.5081 119.722 30.3047 114.083 21.5928C106.262 9.50968 96.2828 0.490916 84.5111 1.1156C87.3746 1.5612 90.2919 2.85042 93.1909 4.74801C98.3183 8.10422 103.479 13.4182 108.349 19.5852C115.615 28.7866 122.287 39.954 127.289 49.5403ZM65.5034 17.185C65.2436 21.9359 67.063 26.6632 70.2119 31.1999C73.8728 36.4743 79.3662 41.5456 85.6299 46.1901C95.8189 53.7452 108.117 60.2221 118.086 64.6453C108.192 61.6174 96.3515 56.8598 86.3677 50.4819C73.3985 42.1968 63.7575 31.311 65.2378 18.0694L65.2448 18.0712C65.3163 17.794 65.4024 17.4977 65.5034 17.185ZM66.7864 15.0629L66.8641 15.0784C65.8316 20.2125 67.5392 25.445 71.1055 30.5831C74.6721 35.7216 80.0622 40.7111 86.2784 45.3204C98.6652 54.5051 114.227 62.1028 124.823 66.3053L125.48 66.5077C114.194 60.5321 98.1306 50.7403 85.7945 40.3295C79.5097 35.0256 74.1609 29.5353 70.912 24.2832C68.4614 20.3216 67.1653 16.4249 67.6414 12.8269C67.2189 13.6966 66.9409 14.4639 66.7864 15.0629ZM69.6346 9.91173L69.6529 9.92083C67.6699 13.8956 68.6705 18.5954 71.8369 23.7142C74.9975 28.8234 80.2457 34.2271 86.4965 39.5022C98.9842 50.0408 115.348 59.9636 126.62 65.883L126.701 65.9244L127.049 65.5782C116.288 57.6337 100.828 45.4168 88.7187 34.0591C82.5661 28.2881 77.2573 22.7194 73.8716 18.0338C72.1808 15.6938 70.9472 13.5439 70.3385 11.6779C70.079 10.8827 69.9271 10.1189 69.9103 9.40415C69.8065 9.58523 69.7141 9.75614 69.6346 9.91173ZM71.4749 7.53326C70.8862 8.41334 70.8248 9.66562 71.372 11.3426C71.9301 13.0532 73.0894 15.0974 74.7534 17.4002C78.0773 22.0003 83.3254 27.5125 89.4634 33.2696C101.58 44.6342 117.08 56.8767 127.827 64.8042L128.807 63.8292C120.768 52.9911 108.448 37.4605 97.0683 25.3556C91.2785 19.1971 85.7523 13.9472 81.1687 10.6508C78.8737 9.00023 76.8473 7.86328 75.1648 7.33498C73.5179 6.81786 72.3103 6.9139 71.4749 7.53326ZM73.2162 5.91765C73.9285 5.91301 74.6935 6.05076 75.4912 6.30123C77.3361 6.88052 79.4726 8.09466 81.8045 9.77172C86.4747 13.1305 92.0581 18.4417 97.8611 24.6144C109.235 36.7128 121.53 52.2044 129.585 63.0555L130.112 62.5317C124.047 51.184 113.948 34.7661 103.316 22.291C97.9855 16.0367 92.548 10.8056 87.442 7.69256C82.3259 4.57339 77.6748 3.65411 73.7966 5.7441L73.7093 5.79114L73.611 5.80439C73.4908 5.82057 73.3684 5.85097 73.2442 5.89443L73.2162 5.91765Z" fill="#151515"/>
<path d="M190.145 20.6621C192.279 18.5585 195.72 18.5788 197.829 20.7076L200.251 23.1515L200.317 23.0857C202.015 21.267 205.167 17.1152 206.135 12.868C206.284 12.2139 206.388 11.8826 206.455 11.8123C206.844 10.7468 207.467 9.74715 208.325 8.89242L209.941 7.28044C213.082 4.14844 218.174 4.14843 221.315 7.28044L222.644 8.60645C225.785 11.7385 225.785 16.8165 222.644 19.9485L221.028 21.5604C220.22 22.3665 219.282 22.965 218.282 23.3562C218.264 23.4224 217.936 23.5376 217.215 23.7139C213.69 24.5746 210.252 26.951 208.157 28.7262L206.959 29.9206L209.703 32.6889C211.812 34.8176 211.792 38.2486 209.657 40.3523L159.212 90.0646L139.582 70.4898L190.145 20.6621Z" fill="#151515"/>
<path d="M17.4464 192V171H25.3064C27.0864 171 28.6164 171.29 29.8964 171.87C31.1764 172.43 32.1564 173.25 32.8364 174.33C33.5364 175.39 33.8864 176.68 33.8864 178.2C33.8864 179.68 33.5364 180.96 32.8364 182.04C32.1564 183.1 31.1764 183.92 29.8964 184.5C28.6164 185.08 27.0864 185.37 25.3064 185.37H18.6764L19.6664 184.32V192H17.4464ZM19.6664 184.5L18.6764 183.42H25.2464C27.3464 183.42 28.9364 182.97 30.0164 182.07C31.1164 181.15 31.6664 179.86 31.6664 178.2C31.6664 176.52 31.1164 175.22 30.0164 174.3C28.9364 173.38 27.3464 172.92 25.2464 172.92H18.6764L19.6664 171.87V184.5ZM47.9601 192V188.52L47.8701 187.95V182.13C47.8701 180.79 47.4901 179.76 46.7301 179.04C45.9901 178.32 44.8801 177.96 43.4001 177.96C42.3801 177.96 41.4101 178.13 40.4901 178.47C39.5701 178.81 38.7901 179.26 38.1501 179.82L37.1901 178.23C37.9901 177.55 38.9501 177.03 40.0701 176.67C41.1901 176.29 42.3701 176.1 43.6101 176.1C45.6501 176.1 47.2201 176.61 48.3201 177.63C49.4401 178.63 50.0001 180.16 50.0001 182.22V192H47.9601ZM42.5301 192.15C41.3501 192.15 40.3201 191.96 39.4401 191.58C38.5801 191.18 37.9201 190.64 37.4601 189.96C37.0001 189.26 36.7701 188.46 36.7701 187.56C36.7701 186.74 36.9601 186 37.3401 185.34C37.7401 184.66 38.3801 184.12 39.2601 183.72C40.1601 183.3 41.3601 183.09 42.8601 183.09H48.2901V184.68H42.9201C41.4001 184.68 40.3401 184.95 39.7401 185.49C39.1601 186.03 38.8701 186.7 38.8701 187.5C38.8701 188.4 39.2201 189.12 39.9201 189.66C40.6201 190.2 41.6001 190.47 42.8601 190.47C44.0601 190.47 45.0901 190.2 45.9501 189.66C46.8301 189.1 47.4701 188.3 47.8701 187.26L48.3501 188.73C47.9501 189.77 47.2501 190.6 46.2501 191.22C45.2701 191.84 44.0301 192.15 42.5301 192.15ZM60.0154 192.15C58.7154 192.15 57.4854 191.97 56.3254 191.61C55.1654 191.23 54.2554 190.76 53.5954 190.2L54.5554 188.52C55.1954 189 56.0154 189.42 57.0154 189.78C58.0154 190.12 59.0654 190.29 60.1654 190.29C61.6654 190.29 62.7454 190.06 63.4054 189.6C64.0654 189.12 64.3954 188.49 64.3954 187.71C64.3954 187.13 64.2054 186.68 63.8254 186.36C63.4654 186.02 62.9854 185.77 62.3854 185.61C61.7854 185.43 61.1154 185.28 60.3754 185.16C59.6354 185.04 58.8954 184.9 58.1554 184.74C57.4354 184.58 56.7754 184.35 56.1754 184.05C55.5754 183.73 55.0854 183.3 54.7054 182.76C54.3454 182.22 54.1654 181.5 54.1654 180.6C54.1654 179.74 54.4054 178.97 54.8854 178.29C55.3654 177.61 56.0654 177.08 56.9854 176.7C57.9254 176.3 59.0654 176.1 60.4054 176.1C61.4254 176.1 62.4454 176.24 63.4654 176.52C64.4854 176.78 65.3254 177.13 65.9854 177.57L65.0554 179.28C64.3554 178.8 63.6054 178.46 62.8054 178.26C62.0054 178.04 61.2054 177.93 60.4054 177.93C58.9854 177.93 57.9354 178.18 57.2554 178.68C56.5954 179.16 56.2654 179.78 56.2654 180.54C56.2654 181.14 56.4454 181.61 56.8054 181.95C57.1854 182.29 57.6754 182.56 58.2754 182.76C58.8954 182.94 59.5654 183.09 60.2854 183.21C61.0254 183.33 61.7554 183.48 62.4754 183.66C63.2154 183.82 63.8854 184.05 64.4854 184.35C65.1054 184.63 65.5954 185.04 65.9554 185.58C66.3354 186.1 66.5254 186.79 66.5254 187.65C66.5254 188.57 66.2654 189.37 65.7454 190.05C65.2454 190.71 64.5054 191.23 63.5254 191.61C62.5654 191.97 61.3954 192.15 60.0154 192.15ZM75.4139 192.15C73.9339 192.15 72.7939 191.75 71.9939 190.95C71.1939 190.15 70.7939 189.02 70.7939 187.56V172.77H72.9239V187.44C72.9239 188.36 73.1539 189.07 73.6139 189.57C74.0939 190.07 74.7739 190.32 75.6539 190.32C76.5939 190.32 77.3739 190.05 77.9939 189.51L78.7439 191.04C78.3239 191.42 77.8139 191.7 77.2139 191.88C76.6339 192.06 76.0339 192.15 75.4139 192.15ZM67.9739 178.02V176.25H77.7239V178.02H67.9739ZM88.7547 192.15C87.1147 192.15 85.6747 191.81 84.4347 191.13C83.1947 190.43 82.2247 189.48 81.5247 188.28C80.8247 187.06 80.4747 185.67 80.4747 184.11C80.4747 182.55 80.8047 181.17 81.4647 179.97C82.1447 178.77 83.0647 177.83 84.2247 177.15C85.4047 176.45 86.7247 176.1 88.1847 176.1C89.6647 176.1 90.9747 176.44 92.1147 177.12C93.2747 177.78 94.1847 178.72 94.8447 179.94C95.5047 181.14 95.8347 182.53 95.8347 184.11C95.8347 184.21 95.8247 184.32 95.8047 184.44C95.8047 184.54 95.8047 184.65 95.8047 184.77H82.0947V183.18H94.6647L93.8247 183.81C93.8247 182.67 93.5747 181.66 93.0747 180.78C92.5947 179.88 91.9347 179.18 91.0947 178.68C90.2547 178.18 89.2847 177.93 88.1847 177.93C87.1047 177.93 86.1347 178.18 85.2747 178.68C84.4147 179.18 83.7447 179.88 83.2647 180.78C82.7847 181.68 82.5447 182.71 82.5447 183.87V184.2C82.5447 185.4 82.8047 186.46 83.3247 187.38C83.8647 188.28 84.6047 188.99 85.5447 189.51C86.5047 190.01 87.5947 190.26 88.8147 190.26C89.7747 190.26 90.6647 190.09 91.4847 189.75C92.3247 189.41 93.0447 188.89 93.6447 188.19L94.8447 189.57C94.1447 190.41 93.2647 191.05 92.2047 191.49C91.1647 191.93 90.0147 192.15 88.7547 192.15ZM100.17 192V169.74H102.3V192H100.17ZM114.917 192.15C113.277 192.15 111.837 191.81 110.597 191.13C109.357 190.43 108.387 189.48 107.687 188.28C106.987 187.06 106.637 185.67 106.637 184.11C106.637 182.55 106.967 181.17 107.627 179.97C108.307 178.77 109.227 177.83 110.387 177.15C111.567 176.45 112.887 176.1 114.347 176.1C115.827 176.1 117.137 176.44 118.277 177.12C119.437 177.78 120.347 178.72 121.007 179.94C121.667 181.14 121.997 182.53 121.997 184.11C121.997 184.21 121.987 184.32 121.967 184.44C121.967 184.54 121.967 184.65 121.967 184.77H108.257V183.18H120.827L119.987 183.81C119.987 182.67 119.737 181.66 119.237 180.78C118.757 179.88 118.097 179.18 117.257 178.68C116.417 178.18 115.447 177.93 114.347 177.93C113.267 177.93 112.297 178.18 111.437 178.68C110.577 179.18 109.907 179.88 109.427 180.78C108.947 181.68 108.707 182.71 108.707 183.87V184.2C108.707 185.4 108.967 186.46 109.487 187.38C110.027 188.28 110.767 188.99 111.707 189.51C112.667 190.01 113.757 190.26 114.977 190.26C115.937 190.26 116.827 190.09 117.647 189.75C118.487 189.41 119.207 188.89 119.807 188.19L121.007 189.57C120.307 190.41 119.427 191.05 118.367 191.49C117.327 191.93 116.177 192.15 114.917 192.15ZM126.332 192V176.25H128.372V180.54L128.162 179.79C128.602 178.59 129.342 177.68 130.382 177.06C131.422 176.42 132.712 176.1 134.252 176.1V178.17C134.172 178.17 134.092 178.17 134.012 178.17C133.932 178.15 133.852 178.14 133.772 178.14C132.112 178.14 130.812 178.65 129.872 179.67C128.932 180.67 128.462 182.1 128.462 183.96V192H126.332ZM138.139 192V176.25H140.269V192H138.139ZM137.269 173.79L141.379 170.07H144.229L139.369 173.79H137.269ZM156.066 192V188.52L155.976 187.95V182.13C155.976 180.79 155.596 179.76 154.836 179.04C154.096 178.32 152.986 177.96 151.506 177.96C150.486 177.96 149.516 178.13 148.596 178.47C147.676 178.81 146.896 179.26 146.256 179.82L145.296 178.23C146.096 177.55 147.056 177.03 148.176 176.67C149.296 176.29 150.476 176.1 151.716 176.1C153.756 176.1 155.326 176.61 156.426 177.63C157.546 178.63 158.106 180.16 158.106 182.22V192H156.066ZM150.636 192.15C149.456 192.15 148.426 191.96 147.546 191.58C146.686 191.18 146.026 190.64 145.566 189.96C145.106 189.26 144.876 188.46 144.876 187.56C144.876 186.74 145.066 186 145.446 185.34C145.846 184.66 146.486 184.12 147.366 183.72C148.266 183.3 149.466 183.09 150.966 183.09H156.396V184.68H151.026C149.506 184.68 148.446 184.95 147.846 185.49C147.266 186.03 146.976 186.7 146.976 187.5C146.976 188.4 147.326 189.12 148.026 189.66C148.726 190.2 149.706 190.47 150.966 190.47C152.166 190.47 153.196 190.2 154.056 189.66C154.936 189.1 155.576 188.3 155.976 187.26L156.456 188.73C156.056 189.77 155.356 190.6 154.356 191.22C153.376 191.84 152.136 192.15 150.636 192.15ZM172.192 192V171H174.022L188.512 189.24H187.552V171H189.742V192H187.912L173.452 173.76H174.412V192H172.192ZM206.017 192V188.52L205.927 187.95V182.13C205.927 180.79 205.547 179.76 204.787 179.04C204.047 178.32 202.937 177.96 201.457 177.96C200.437 177.96 199.467 178.13 198.547 178.47C197.627 178.81 196.847 179.26 196.207 179.82L195.247 178.23C196.047 177.55 197.007 177.03 198.127 176.67C199.247 176.29 200.427 176.1 201.667 176.1C203.707 176.1 205.277 176.61 206.377 177.63C207.497 178.63 208.057 180.16 208.057 182.22V192H206.017ZM200.587 192.15C199.407 192.15 198.377 191.96 197.497 191.58C196.637 191.18 195.977 190.64 195.517 189.96C195.057 189.26 194.827 188.46 194.827 187.56C194.827 186.74 195.017 186 195.397 185.34C195.797 184.66 196.437 184.12 197.317 183.72C198.217 183.3 199.417 183.09 200.917 183.09H206.347V184.68H200.977C199.457 184.68 198.397 184.95 197.797 185.49C197.217 186.03 196.927 186.7 196.927 187.5C196.927 188.4 197.277 189.12 197.977 189.66C198.677 190.2 199.657 190.47 200.917 190.47C202.117 190.47 203.147 190.2 204.007 189.66C204.887 189.1 205.527 188.3 205.927 187.26L206.407 188.73C206.007 189.77 205.307 190.6 204.307 191.22C203.327 191.84 202.087 192.15 200.587 192.15ZM218.822 192.15C217.342 192.15 216.202 191.75 215.402 190.95C214.602 190.15 214.202 189.02 214.202 187.56V172.77H216.332V187.44C216.332 188.36 216.562 189.07 217.022 189.57C217.502 190.07 218.182 190.32 219.062 190.32C220.002 190.32 220.782 190.05 221.402 189.51L222.152 191.04C221.732 191.42 221.222 191.7 220.622 191.88C220.042 192.06 219.442 192.15 218.822 192.15ZM211.382 178.02V176.25H221.132V178.02H211.382ZM235.9 192V188.52L235.81 187.95V182.13C235.81 180.79 235.43 179.76 234.67 179.04C233.93 178.32 232.82 177.96 231.34 177.96C230.32 177.96 229.35 178.13 228.43 178.47C227.51 178.81 226.73 179.26 226.09 179.82L225.13 178.23C225.93 177.55 226.89 177.03 228.01 176.67C229.13 176.29 230.31 176.1 231.55 176.1C233.59 176.1 235.16 176.61 236.26 177.63C237.38 178.63 237.94 180.16 237.94 182.22V192H235.9ZM230.47 192.15C229.29 192.15 228.26 191.96 227.38 191.58C226.52 191.18 225.86 190.64 225.4 189.96C224.94 189.26 224.71 188.46 224.71 187.56C224.71 186.74 224.9 186 225.28 185.34C225.68 184.66 226.32 184.12 227.2 183.72C228.1 183.3 229.3 183.09 230.8 183.09H236.23V184.68H230.86C229.34 184.68 228.28 184.95 227.68 185.49C227.1 186.03 226.81 186.7 226.81 187.5C226.81 188.4 227.16 189.12 227.86 189.66C228.56 190.2 229.54 190.47 230.8 190.47C232 190.47 233.03 190.2 233.89 189.66C234.77 189.1 235.41 188.3 235.81 187.26L236.29 188.73C235.89 189.77 235.19 190.6 234.19 191.22C233.21 191.84 231.97 192.15 230.47 192.15ZM243.725 192V169.74H245.855V192H243.725ZM251.782 192V176.25H253.912V192H251.782ZM252.862 172.77C252.422 172.77 252.052 172.62 251.752 172.32C251.452 172.02 251.302 171.66 251.302 171.24C251.302 170.82 251.452 170.47 251.752 170.19C252.052 169.89 252.422 169.74 252.862 169.74C253.302 169.74 253.672 169.88 253.972 170.16C254.272 170.44 254.422 170.79 254.422 171.21C254.422 171.65 254.272 172.02 253.972 172.32C253.692 172.62 253.322 172.77 252.862 172.77ZM266.528 192.15C264.888 192.15 263.448 191.81 262.208 191.13C260.968 190.43 259.998 189.48 259.298 188.28C258.598 187.06 258.248 185.67 258.248 184.11C258.248 182.55 258.578 181.17 259.238 179.97C259.918 178.77 260.838 177.83 261.998 177.15C263.178 176.45 264.498 176.1 265.958 176.1C267.438 176.1 268.748 176.44 269.888 177.12C271.048 177.78 271.958 178.72 272.618 179.94C273.278 181.14 273.608 182.53 273.608 184.11C273.608 184.21 273.598 184.32 273.578 184.44C273.578 184.54 273.578 184.65 273.578 184.77H259.868V183.18H272.438L271.598 183.81C271.598 182.67 271.348 181.66 270.848 180.78C270.368 179.88 269.708 179.18 268.868 178.68C268.028 178.18 267.058 177.93 265.958 177.93C264.878 177.93 263.908 178.18 263.048 178.68C262.188 179.18 261.518 179.88 261.038 180.78C260.558 181.68 260.318 182.71 260.318 183.87V184.2C260.318 185.4 260.578 186.46 261.098 187.38C261.638 188.28 262.378 188.99 263.318 189.51C264.278 190.01 265.368 190.26 266.588 190.26C267.548 190.26 268.438 190.09 269.258 189.75C270.098 189.41 270.818 188.89 271.418 188.19L272.618 189.57C271.918 190.41 271.038 191.05 269.978 191.49C268.938 191.93 267.788 192.15 266.528 192.15Z" fill="#151515"/>
<path d="M14 205.006H133.246M155.754 205.006H275M152.8 208.571H151.07L148.395 205.714H154.138V204.286H148.395L151.07 201.429H152.8V200H142.098C140.973 200.002 139.886 200.436 139.037 201.223C138.187 202.01 137.63 203.097 137.469 204.286H134.74V205.714H137.469C137.63 206.903 138.187 207.99 139.037 208.777C139.886 209.564 140.973 209.998 142.098 210H152.8V208.571ZM138.821 204.286C138.976 203.48 139.387 202.755 139.984 202.235C140.581 201.714 141.327 201.43 142.098 201.429H143.828L141.152 204.286H138.821ZM143.044 204.286L145.719 201.429H149.179L146.503 204.286H143.044ZM146.503 205.714L149.179 208.571H145.719L143.044 205.714H146.503ZM138.821 205.714H141.152L143.828 208.571H142.098C141.327 208.57 140.581 208.286 139.984 207.765C139.387 207.245 138.976 206.52 138.821 205.714Z" stroke="#151515" stroke-linecap="square"/>
<path d="M87.754 239.349C87.862 238.719 87.988 238.071 88.132 237.405C88.276 236.757 88.456 236.028 88.672 235.218C88.906 234.39 89.185 233.436 89.509 232.356C89.833 231.276 90.238 229.998 90.724 228.522C90.436 228.54 90.139 228.567 89.833 228.603C89.545 228.639 89.248 228.675 88.942 228.711C88.96 228.261 89.167 227.91 89.563 227.658C89.977 227.388 90.517 227.19 91.183 227.064C91.309 226.686 91.435 226.299 91.561 225.903C91.705 225.489 91.849 225.066 91.993 224.634C92.137 224.184 92.29 223.734 92.452 223.284C92.614 222.816 92.776 222.33 92.938 221.826C93.118 221.322 93.298 220.809 93.478 220.287C93.55 220.089 93.631 219.846 93.721 219.558C93.811 219.252 93.856 218.964 93.856 218.694C93.856 218.55 93.829 218.451 93.775 218.397C93.739 218.343 93.64 218.316 93.478 218.316C93.046 218.316 92.623 218.496 92.209 218.856C91.813 219.198 91.453 219.639 91.129 220.179C90.823 220.719 90.58 221.277 90.4 221.853C90.22 222.429 90.13 222.942 90.13 223.392C90.13 223.554 90.139 223.716 90.157 223.878C90.193 224.04 90.229 224.184 90.265 224.31C89.671 224.31 89.248 224.166 88.996 223.878C88.762 223.572 88.645 223.203 88.645 222.771C88.645 222.159 88.825 221.547 89.185 220.935C89.545 220.323 90.004 219.765 90.562 219.261C91.138 218.739 91.732 218.325 92.344 218.019C92.974 217.713 93.541 217.56 94.045 217.56C94.531 217.56 94.855 217.695 95.017 217.965C95.197 218.235 95.287 218.532 95.287 218.856C95.287 219.054 95.26 219.252 95.206 219.45C95.17 219.648 95.125 219.837 95.071 220.017L92.965 226.875C93.217 226.857 93.469 226.848 93.721 226.848C93.991 226.83 94.261 226.821 94.531 226.821C95.377 226.821 96.178 226.848 96.934 226.902C97.708 226.938 98.437 226.992 99.121 227.064C99.481 225.912 99.832 224.778 100.174 223.662C100.534 222.546 100.858 221.574 101.146 220.746C101.452 219.9 101.686 219.306 101.848 218.964C101.92 218.82 102.019 218.64 102.145 218.424C102.271 218.208 102.433 218.01 102.631 217.83C102.847 217.65 103.081 217.56 103.333 217.56C103.081 218.226 102.793 219.081 102.469 220.125C102.145 221.151 101.812 222.276 101.47 223.5C101.146 224.724 100.822 225.948 100.498 227.172C100.858 227.19 101.2 227.217 101.524 227.253C101.866 227.271 102.199 227.28 102.523 227.28C102.127 227.694 101.74 227.946 101.362 228.036C100.984 228.108 100.615 228.144 100.255 228.144C100.093 228.81 99.94 229.458 99.796 230.088C99.652 230.7 99.526 231.285 99.418 231.843C99.094 233.373 98.86 234.678 98.716 235.758C98.59 236.838 98.527 237.711 98.527 238.377C98.527 238.593 98.527 238.773 98.527 238.917C98.545 239.079 98.563 239.223 98.581 239.349C97.879 239.277 97.393 239.079 97.123 238.755C96.853 238.431 96.718 237.927 96.718 237.243C96.718 236.775 96.772 236.19 96.88 235.488C96.988 234.768 97.15 233.994 97.366 233.166C97.51 232.626 97.708 231.915 97.96 231.033C98.212 230.133 98.491 229.179 98.797 228.171C97.699 228.171 96.781 228.18 96.043 228.198C95.305 228.216 94.666 228.234 94.126 228.252C93.586 228.27 93.046 228.306 92.506 228.36C92.182 229.404 91.858 230.439 91.534 231.465C91.21 232.491 90.913 233.436 90.643 234.3C90.373 235.146 90.148 235.866 89.968 236.46C89.788 237.054 89.671 237.441 89.617 237.621C89.437 238.233 89.149 238.674 88.753 238.944C88.375 239.214 88.042 239.349 87.754 239.349ZM104.084 237.864C103.31 237.864 102.761 237.621 102.437 237.135C102.113 236.667 101.951 236.091 101.951 235.407C101.951 234.849 102.041 234.273 102.221 233.679C102.401 233.085 102.635 232.527 102.923 232.005C103.229 231.483 103.562 231.06 103.922 230.736C104.3 230.412 104.678 230.25 105.056 230.25C105.146 230.25 105.236 230.268 105.326 230.304C105.434 230.322 105.533 230.349 105.623 230.385C105.461 230.529 105.263 230.799 105.029 231.195C104.813 231.573 104.606 232.014 104.408 232.518C104.21 233.004 104.039 233.49 103.895 233.976C103.769 234.462 103.706 234.876 103.706 235.218C103.706 235.758 103.796 236.154 103.976 236.406C104.156 236.64 104.39 236.757 104.678 236.757C105.056 236.757 105.506 236.559 106.028 236.163C106.55 235.749 107.063 235.227 107.567 234.597C107.063 234.183 106.667 233.643 106.379 232.977C106.109 232.293 105.974 231.6 105.974 230.898C105.974 230.304 106.073 229.746 106.271 229.224C106.487 228.702 106.793 228.288 107.189 227.982C107.585 227.658 108.062 227.496 108.62 227.496C109.358 227.496 109.853 227.694 110.105 228.09C110.357 228.486 110.483 228.981 110.483 229.575C110.483 230.277 110.312 231.06 109.97 231.924C109.628 232.77 109.196 233.589 108.674 234.381C108.998 234.561 109.34 234.651 109.7 234.651C109.988 234.651 110.312 234.597 110.672 234.489C111.032 234.363 111.383 234.156 111.725 233.868C112.085 233.58 112.373 233.193 112.589 232.707L112.913 232.977C112.553 233.823 112.04 234.426 111.374 234.786C110.726 235.128 110.105 235.299 109.511 235.299C109.277 235.299 109.052 235.281 108.836 235.245C108.62 235.191 108.413 235.119 108.215 235.029C107.603 235.839 106.928 236.514 106.19 237.054C105.47 237.594 104.768 237.864 104.084 237.864ZM108.053 233.895C108.503 233.229 108.872 232.536 109.16 231.816C109.466 231.078 109.619 230.385 109.619 229.737C109.619 229.215 109.538 228.837 109.376 228.603C109.232 228.351 109.043 228.225 108.809 228.225C108.449 228.225 108.08 228.486 107.702 229.008C107.324 229.53 107.135 230.187 107.135 230.979C107.135 231.501 107.207 232.032 107.351 232.572C107.513 233.094 107.747 233.535 108.053 233.895ZM125.691 237.837C125.061 237.837 124.602 237.639 124.314 237.243C124.026 236.865 123.882 236.406 123.882 235.866C123.882 235.416 123.945 234.966 124.071 234.516C124.215 234.066 124.35 233.625 124.476 233.193C124.62 232.761 124.692 232.374 124.692 232.032C124.692 231.672 124.611 231.42 124.449 231.276C124.287 231.132 124.107 231.06 123.909 231.06C123.459 231.06 122.964 231.411 122.424 232.113C121.902 232.815 121.218 233.805 120.372 235.083C120.084 235.515 119.841 235.956 119.643 236.406C119.445 236.838 119.256 237.234 119.076 237.594C118.932 237.594 118.752 237.576 118.536 237.54C118.32 237.504 118.122 237.441 117.942 237.351C117.78 237.279 117.699 237.18 117.699 237.054C117.699 236.928 117.78 236.631 117.942 236.163C118.122 235.677 118.32 235.119 118.536 234.489C118.77 233.841 118.968 233.193 119.13 232.545C119.31 231.879 119.4 231.312 119.4 230.844C119.4 230.538 119.346 230.295 119.238 230.115C119.148 229.917 118.977 229.818 118.725 229.818C118.329 229.818 117.852 230.061 117.294 230.547C116.736 231.015 116.16 231.636 115.566 232.41C114.972 233.184 114.405 234.039 113.865 234.975C113.343 235.893 112.92 236.811 112.596 237.729C112.434 237.729 112.236 237.702 112.002 237.648C111.768 237.594 111.57 237.522 111.408 237.432C111.228 237.342 111.138 237.252 111.138 237.162C111.138 237.054 111.237 236.739 111.435 236.217C111.615 235.677 111.831 235.038 112.083 234.3C112.317 233.544 112.524 232.779 112.704 232.005C112.902 231.231 113.001 230.547 113.001 229.953C113.109 229.827 113.28 229.701 113.514 229.575C113.748 229.449 113.991 229.386 114.243 229.386C114.495 229.386 114.675 229.449 114.783 229.575C114.909 229.701 114.972 229.872 114.972 230.088C114.972 230.322 114.9 230.727 114.756 231.303C114.63 231.861 114.468 232.482 114.27 233.166C114.63 232.59 115.035 232.005 115.485 231.411C115.953 230.799 116.439 230.241 116.943 229.737C117.447 229.233 117.951 228.828 118.455 228.522C118.977 228.198 119.481 228.036 119.967 228.036C120.525 228.036 120.903 228.243 121.101 228.657C121.317 229.053 121.425 229.53 121.425 230.088C121.425 230.538 121.371 231.015 121.263 231.519C121.173 232.005 121.065 232.464 120.939 232.896C120.813 233.31 120.696 233.643 120.588 233.895C120.966 233.211 121.38 232.554 121.83 231.924C122.298 231.276 122.802 230.754 123.342 230.358C123.882 229.944 124.458 229.737 125.07 229.737C125.646 229.737 126.042 229.908 126.258 230.25C126.492 230.592 126.609 230.997 126.609 231.465C126.609 231.933 126.528 232.446 126.366 233.004C126.204 233.562 126.033 234.102 125.853 234.624C125.691 235.146 125.61 235.596 125.61 235.974C125.61 236.208 125.664 236.424 125.772 236.622C125.898 236.802 126.114 236.892 126.42 236.892C126.924 236.892 127.392 236.667 127.824 236.217C128.274 235.749 128.688 235.191 129.066 234.543C129.444 233.877 129.768 233.238 130.038 232.626L130.362 233.004C130.074 233.76 129.705 234.516 129.255 235.272C128.805 236.01 128.274 236.622 127.662 237.108C127.068 237.594 126.411 237.837 125.691 237.837ZM132.454 238.188C131.356 238.188 130.528 237.882 129.97 237.27C129.43 236.676 129.16 235.938 129.16 235.056C129.16 234.246 129.358 233.391 129.754 232.491C130.168 231.591 130.708 230.745 131.374 229.953C132.058 229.161 132.805 228.522 133.615 228.036C134.425 227.532 135.226 227.28 136.018 227.28C136.432 227.28 136.81 227.388 137.152 227.604C137.512 227.82 137.692 228.261 137.692 228.927C137.692 229.611 137.485 230.259 137.071 230.871C136.675 231.465 136.144 231.996 135.478 232.464C134.83 232.932 134.11 233.319 133.318 233.625C132.544 233.913 131.77 234.093 130.996 234.165C130.96 234.345 130.933 234.516 130.915 234.678C130.897 234.84 130.888 234.993 130.888 235.137C130.888 235.407 130.915 235.677 130.969 235.947C131.041 236.217 131.158 236.469 131.32 236.703C131.482 236.919 131.698 237.09 131.968 237.216C132.256 237.342 132.607 237.405 133.021 237.405C133.795 237.405 134.56 237.189 135.316 236.757C136.072 236.307 136.774 235.722 137.422 235.002C138.07 234.282 138.619 233.49 139.069 232.626L139.393 232.869C138.907 233.949 138.286 234.885 137.53 235.677C136.792 236.469 135.982 237.081 135.1 237.513C134.236 237.963 133.354 238.188 132.454 238.188ZM131.131 233.652C131.617 233.49 132.166 233.256 132.778 232.95C133.39 232.626 133.975 232.248 134.533 231.816C135.109 231.384 135.577 230.907 135.937 230.385C136.315 229.863 136.504 229.314 136.504 228.738C136.504 228.54 136.468 228.387 136.396 228.279C136.324 228.171 136.171 228.117 135.937 228.117C135.505 228.117 135.046 228.288 134.56 228.63C134.074 228.954 133.606 229.386 133.156 229.926C132.706 230.466 132.301 231.06 131.941 231.708C131.581 232.356 131.311 233.004 131.131 233.652ZM148.053 238.971C147.117 238.971 146.415 238.665 145.947 238.053C145.497 237.441 145.272 236.613 145.272 235.569C145.272 234.669 145.425 233.607 145.731 232.383C146.037 231.159 146.442 229.881 146.946 228.549C147.45 227.199 148.008 225.885 148.62 224.607C149.25 223.329 149.88 222.177 150.51 221.151C151.14 220.107 151.734 219.279 152.292 218.667C152.85 218.037 153.309 217.722 153.669 217.722C153.975 217.722 154.191 217.911 154.317 218.289C154.461 218.667 154.533 219.045 154.533 219.423C154.533 219.927 154.425 220.539 154.209 221.259C153.993 221.979 153.687 222.753 153.291 223.581C152.895 224.391 152.436 225.192 151.914 225.984C151.392 226.776 150.825 227.505 150.213 228.171C149.619 228.819 149.007 229.332 148.377 229.71C148.269 229.908 148.107 230.322 147.891 230.952C147.693 231.564 147.504 232.275 147.324 233.085C147.162 233.877 147.081 234.651 147.081 235.407C147.081 236.145 147.189 236.748 147.405 237.216C147.639 237.702 148.026 237.945 148.566 237.945C149.088 237.945 149.628 237.729 150.186 237.297C150.744 236.883 151.194 236.343 151.536 235.677C150.87 235.335 150.375 234.84 150.051 234.192C149.727 233.526 149.565 232.86 149.565 232.194C149.565 231.33 149.79 230.637 150.24 230.115C150.69 229.593 151.221 229.332 151.833 229.332C152.355 229.332 152.769 229.548 153.075 229.98C153.381 230.394 153.534 231.006 153.534 231.816C153.534 232.41 153.453 233.022 153.291 233.652C153.129 234.282 152.895 234.894 152.589 235.488C152.697 235.506 152.805 235.524 152.913 235.542C153.039 235.56 153.165 235.569 153.291 235.569C153.939 235.569 154.479 235.416 154.911 235.11C155.343 234.786 155.703 234.399 155.991 233.949C156.297 233.481 156.549 233.04 156.747 232.626L157.071 232.977C156.567 234.219 155.964 235.047 155.262 235.461C154.578 235.857 153.894 236.055 153.21 236.055C153.066 236.055 152.922 236.046 152.778 236.028C152.634 236.01 152.49 235.992 152.346 235.974C151.86 236.802 151.257 237.504 150.537 238.08C149.835 238.674 149.007 238.971 148.053 238.971ZM151.806 235.137C152.004 234.723 152.157 234.291 152.265 233.841C152.373 233.373 152.427 232.896 152.427 232.41C152.427 231.78 152.337 231.285 152.157 230.925C151.995 230.565 151.788 230.385 151.536 230.385C151.266 230.385 151.023 230.574 150.807 230.952C150.609 231.312 150.51 231.771 150.51 232.329C150.51 232.815 150.609 233.328 150.807 233.868C151.005 234.408 151.338 234.831 151.806 235.137ZM148.674 228.657C149.178 228.261 149.664 227.757 150.132 227.145C150.618 226.533 151.068 225.885 151.482 225.201C151.896 224.499 152.265 223.815 152.589 223.149C152.913 222.483 153.165 221.88 153.345 221.34C153.525 220.8 153.615 220.395 153.615 220.125C153.615 220.035 153.606 219.981 153.588 219.963C153.57 219.927 153.543 219.909 153.507 219.909C153.363 219.909 153.084 220.17 152.67 220.692C152.274 221.196 151.824 221.88 151.32 222.744C150.834 223.59 150.348 224.535 149.862 225.579C149.376 226.605 148.98 227.631 148.674 228.657ZM157.464 238.269C156.906 238.269 156.438 238.08 156.06 237.702C155.664 237.342 155.466 236.784 155.466 236.028C155.466 235.38 155.61 234.687 155.898 233.949C156.186 233.193 156.582 232.455 157.086 231.735C157.59 230.997 158.157 230.331 158.787 229.737C159.435 229.125 160.11 228.639 160.812 228.279C161.532 227.919 162.243 227.739 162.945 227.739C163.647 227.739 164.232 227.928 164.7 228.306C165.168 228.666 165.402 229.152 165.402 229.764C165.402 230.214 165.276 230.52 165.024 230.682C164.79 230.844 164.475 230.925 164.079 230.925C164.115 230.781 164.142 230.628 164.16 230.466C164.196 230.286 164.214 230.124 164.214 229.98C164.214 229.566 164.115 229.215 163.917 228.927C163.719 228.621 163.377 228.468 162.891 228.468C162.387 228.468 161.874 228.648 161.352 229.008C160.83 229.35 160.326 229.818 159.84 230.412C159.354 230.988 158.922 231.618 158.544 232.302C158.166 232.986 157.869 233.661 157.653 234.327C157.437 234.993 157.329 235.587 157.329 236.109C157.329 236.811 157.572 237.162 158.058 237.162C158.472 237.162 158.922 236.973 159.408 236.595C159.894 236.199 160.389 235.704 160.893 235.11C161.415 234.498 161.91 233.868 162.378 233.22C162.846 232.572 163.26 231.978 163.62 231.438C163.692 231.33 163.737 231.276 163.755 231.276C163.863 231.294 163.998 231.33 164.16 231.384C164.34 231.438 164.493 231.51 164.619 231.6C164.745 231.69 164.808 231.807 164.808 231.951C164.808 232.113 164.727 232.338 164.565 232.626C164.403 232.896 164.223 233.211 164.025 233.571C163.827 233.931 163.647 234.3 163.485 234.678C163.323 235.038 163.242 235.38 163.242 235.704C163.242 235.974 163.314 236.244 163.458 236.514C163.602 236.766 163.836 236.892 164.16 236.892C164.646 236.892 165.285 236.541 166.077 235.839C166.869 235.119 167.67 234.048 168.48 232.626L168.75 232.896C168.372 233.868 167.886 234.723 167.292 235.461C166.698 236.199 166.059 236.775 165.375 237.189C164.709 237.603 164.052 237.81 163.404 237.81C162.738 237.81 162.243 237.612 161.919 237.216C161.613 236.82 161.46 236.388 161.46 235.92C161.46 235.812 161.469 235.695 161.487 235.569C161.505 235.425 161.523 235.281 161.541 235.137C160.767 236.181 160.056 236.964 159.408 237.486C158.778 238.008 158.13 238.269 157.464 238.269ZM175.947 238.026C175.443 238.026 175.011 237.855 174.651 237.513C174.291 237.171 174.003 236.739 173.787 236.217C173.589 235.695 173.436 235.164 173.328 234.624C173.238 234.066 173.193 233.58 173.193 233.166C173.391 233.166 173.679 233.121 174.057 233.031C174.435 232.923 174.822 232.77 175.218 232.572C175.614 232.356 175.947 232.086 176.217 231.762C176.505 231.42 176.649 231.024 176.649 230.574C176.649 230.196 176.514 229.899 176.244 229.683C175.974 229.467 175.659 229.359 175.299 229.359C174.741 229.359 174.219 229.557 173.733 229.953C173.247 230.331 172.806 230.835 172.41 231.465C172.032 232.077 171.69 232.734 171.384 233.436C171.078 234.138 170.817 234.804 170.601 235.434C170.385 236.064 170.205 236.586 170.061 237C169.953 237.324 169.8 237.54 169.602 237.648C169.404 237.774 169.197 237.837 168.981 237.837C168.675 237.837 168.45 237.711 168.306 237.459C168.18 237.207 168.099 236.892 168.063 236.514C168.045 236.118 168.036 235.713 168.036 235.299C168.036 234.363 168.189 233.283 168.495 232.059C168.801 230.835 169.206 229.566 169.71 228.252C170.232 226.92 170.799 225.633 171.411 224.391C172.023 223.149 172.635 222.024 173.247 221.016C173.859 220.008 174.426 219.207 174.948 218.613C175.47 218.019 175.893 217.722 176.217 217.722C176.469 217.722 176.667 217.893 176.811 218.235C176.973 218.577 177.054 218.991 177.054 219.477C177.054 220.089 176.919 220.782 176.649 221.556C176.379 222.312 175.992 223.077 175.488 223.851C175.002 224.625 174.417 225.354 173.733 226.038C173.067 226.722 172.338 227.307 171.546 227.793C170.952 229.251 170.502 230.673 170.196 232.059C169.908 233.427 169.764 234.579 169.764 235.515C170.052 234.795 170.394 234.003 170.79 233.139C171.204 232.275 171.672 231.447 172.194 230.655C172.716 229.863 173.283 229.215 173.895 228.711C174.507 228.207 175.146 227.955 175.812 227.955C176.478 227.955 177.045 228.189 177.513 228.657C177.981 229.125 178.215 229.692 178.215 230.358C178.215 230.934 178.062 231.429 177.756 231.843C177.468 232.239 177.108 232.563 176.676 232.815C176.262 233.049 175.839 233.229 175.407 233.355C174.993 233.463 174.651 233.517 174.381 233.517C174.399 233.661 174.453 233.922 174.543 234.3C174.633 234.678 174.759 235.074 174.921 235.488C175.101 235.902 175.317 236.262 175.569 236.568C175.821 236.856 176.127 237 176.487 237C177.009 237 177.504 236.802 177.972 236.406C178.44 236.01 178.881 235.488 179.295 234.84C179.727 234.174 180.123 233.427 180.483 232.599L180.753 232.869C180.501 233.751 180.114 234.588 179.592 235.38C179.07 236.154 178.485 236.784 177.837 237.27C177.207 237.774 176.577 238.026 175.947 238.026ZM172.005 226.713C172.833 226.047 173.553 225.291 174.165 224.445C174.795 223.599 175.281 222.789 175.623 222.015C175.965 221.223 176.136 220.602 176.136 220.152C176.136 220.062 176.127 219.999 176.109 219.963C176.109 219.927 176.091 219.909 176.055 219.909C175.875 219.909 175.56 220.224 175.11 220.854C174.678 221.484 174.183 222.321 173.625 223.365C173.067 224.391 172.527 225.507 172.005 226.713ZM182.894 238.188C181.796 238.188 180.968 237.882 180.41 237.27C179.87 236.676 179.6 235.938 179.6 235.056C179.6 234.246 179.798 233.391 180.194 232.491C180.608 231.591 181.148 230.745 181.814 229.953C182.498 229.161 183.245 228.522 184.055 228.036C184.865 227.532 185.666 227.28 186.458 227.28C186.872 227.28 187.25 227.388 187.592 227.604C187.952 227.82 188.132 228.261 188.132 228.927C188.132 229.611 187.925 230.259 187.511 230.871C187.115 231.465 186.584 231.996 185.918 232.464C185.27 232.932 184.55 233.319 183.758 233.625C182.984 233.913 182.21 234.093 181.436 234.165C181.4 234.345 181.373 234.516 181.355 234.678C181.337 234.84 181.328 234.993 181.328 235.137C181.328 235.407 181.355 235.677 181.409 235.947C181.481 236.217 181.598 236.469 181.76 236.703C181.922 236.919 182.138 237.09 182.408 237.216C182.696 237.342 183.047 237.405 183.461 237.405C184.235 237.405 185 237.189 185.756 236.757C186.512 236.307 187.214 235.722 187.862 235.002C188.51 234.282 189.059 233.49 189.509 232.626L189.833 232.869C189.347 233.949 188.726 234.885 187.97 235.677C187.232 236.469 186.422 237.081 185.54 237.513C184.676 237.963 183.794 238.188 182.894 238.188ZM181.571 233.652C182.057 233.49 182.606 233.256 183.218 232.95C183.83 232.626 184.415 232.248 184.973 231.816C185.549 231.384 186.017 230.907 186.377 230.385C186.755 229.863 186.944 229.314 186.944 228.738C186.944 228.54 186.908 228.387 186.836 228.279C186.764 228.171 186.611 228.117 186.377 228.117C185.945 228.117 185.486 228.288 185 228.63C184.514 228.954 184.046 229.386 183.596 229.926C183.146 230.466 182.741 231.06 182.381 231.708C182.021 232.356 181.751 233.004 181.571 233.652ZM190.562 237.81C190.256 237.81 189.941 237.729 189.617 237.567C189.311 237.423 189.059 237.18 188.861 236.838C188.645 236.496 188.537 236.064 188.537 235.542C188.537 234.948 188.681 234.282 188.969 233.544C189.257 232.806 189.644 232.077 190.13 231.357C190.616 230.619 191.174 229.944 191.804 229.332C192.434 228.702 193.091 228.207 193.775 227.847C194.459 227.469 195.134 227.28 195.8 227.28C196.178 227.28 196.466 227.352 196.664 227.496C196.88 227.622 196.988 227.829 196.988 228.117C196.988 228.189 196.979 228.252 196.961 228.306C196.961 228.36 196.952 228.423 196.934 228.495C196.844 228.351 196.709 228.252 196.529 228.198C196.367 228.126 196.16 228.09 195.908 228.09C195.332 228.09 194.765 228.27 194.207 228.63C193.667 228.972 193.163 229.431 192.695 230.007C192.245 230.565 191.849 231.168 191.507 231.816C191.165 232.464 190.895 233.094 190.697 233.706C190.517 234.3 190.427 234.804 190.427 235.218C190.427 235.614 190.517 235.929 190.697 236.163C190.877 236.397 191.111 236.514 191.399 236.514C191.885 236.514 192.47 236.208 193.154 235.596C193.856 234.984 194.567 234.12 195.287 233.004C196.007 231.888 196.655 230.583 197.231 229.089C197.627 228.045 198.032 226.983 198.446 225.903C198.878 224.823 199.31 223.788 199.742 222.798C200.174 221.79 200.588 220.899 200.984 220.125C201.398 219.333 201.785 218.712 202.145 218.262C202.523 217.794 202.856 217.56 203.144 217.56C203.288 217.56 203.414 217.623 203.522 217.749C203.63 217.857 203.684 218.001 203.684 218.181C203.684 218.469 203.531 218.964 203.225 219.666C202.937 220.35 202.55 221.178 202.064 222.15C201.596 223.104 201.101 224.148 200.579 225.282C200.057 226.416 199.553 227.568 199.067 228.738C198.599 229.908 198.212 231.042 197.906 232.14C197.618 233.22 197.474 234.21 197.474 235.11C197.474 235.614 197.501 235.992 197.555 236.244C197.609 236.496 197.789 236.622 198.095 236.622C198.473 236.622 198.914 236.46 199.418 236.136C199.922 235.812 200.426 235.353 200.93 234.759C201.434 234.165 201.875 233.454 202.253 232.626L202.577 232.869C202.235 233.787 201.767 234.615 201.173 235.353C200.579 236.073 199.94 236.64 199.256 237.054C198.59 237.486 197.951 237.702 197.339 237.702C196.673 237.702 196.205 237.477 195.935 237.027C195.683 236.595 195.557 236.145 195.557 235.677C195.557 235.371 195.602 234.966 195.692 234.462C195.782 233.958 195.908 233.4 196.07 232.788C195.494 233.742 194.882 234.606 194.234 235.38C193.586 236.136 192.947 236.73 192.317 237.162C191.705 237.594 191.12 237.81 190.562 237.81Z" fill="#151515"/>
</svg>
