<svg width="29" height="29" viewBox="0 0 29 29" fill="none" xmlns="http://www.w3.org/2000/svg">
<path d="M19.2487 13.8439L9.1476 4.2195C8.97906 4.05883 8.75514 3.9692 8.52229 3.9692C8.28944 3.9692 8.06552 4.05883 7.89698 4.2195L7.8861 4.23037C7.80411 4.30826 7.73883 4.40202 7.69422 4.50593C7.6496 4.60985 7.6266 4.72175 7.6266 4.83484C7.6266 4.94793 7.6496 5.05984 7.69422 5.16375C7.73883 5.26767 7.80411 5.36142 7.8861 5.43931L17.3981 14.5018L7.8861 23.5607C7.80411 23.6386 7.73883 23.7323 7.69422 23.8362C7.6496 23.9402 7.6266 24.0521 7.6266 24.1652C7.6266 24.2782 7.6496 24.3902 7.69422 24.4941C7.73883 24.598 7.80411 24.6917 7.8861 24.7696L7.89698 24.7805C8.06552 24.9412 8.28944 25.0308 8.52229 25.0308C8.75514 25.0308 8.97906 24.9412 9.1476 24.7805L19.2487 15.1561C19.3375 15.0715 19.4082 14.9697 19.4565 14.8569C19.5049 14.7441 19.5298 14.6227 19.5298 14.5C19.5298 14.3773 19.5049 14.2559 19.4565 14.1431C19.4082 14.0303 19.3375 13.9285 19.2487 13.8439Z" fill="#838383"/>
</svg>
