<svg width="323" height="124" viewBox="0 0 323 124" fill="none" xmlns="http://www.w3.org/2000/svg">
<path fill-rule="evenodd" clip-rule="evenodd" d="M67.6174 15.2047C72.0712 20.3743 78.7519 29.269 81.5355 33.0702L99.0325 29.6491C97.76 20.2222 92.6699 13.3041 90.284 11.0234C81.0583 5.24562 72.1242 1.26706 68.8104 0L65.6291 1.52047C67.5379 3.34503 67.7499 11.4035 67.6174 15.2047ZM93.4654 11.7832L97.0443 8.36211C104.732 11.6565 120.506 23.5668 124.085 43.713L117.723 49.0347C114.939 45.1068 107.861 36.1107 101.816 31.5493C101.419 27.8748 99.1917 18.7773 93.4654 11.7832ZM113.198 73.4932C116.55 65.8859 116.709 65.525 118.121 51.6961L124.483 45.6142C126.206 54.2302 126.869 74.123 118.121 88.1873L114.144 94.6493C114.144 91.4817 113.349 81.9534 111.758 76.7838C112.296 75.5418 112.773 74.4591 113.198 73.4932ZM81.9335 35.7307C80.661 41.5085 75.836 53.0894 73.5826 58.1576L86.7054 79.8243C96.5673 79.2161 106.721 76.5299 110.565 75.2629C113.428 71.0056 115.204 56.7638 115.735 50.1751C110.963 42.5728 103.142 35.0971 99.8282 32.3096C94.7381 33.8301 85.7775 35.2239 81.9335 35.7307ZM66.8222 123.158C69.4733 121.511 75.1731 118.064 76.7637 117.456H86.7052C83.789 119.103 75.7298 122.549 66.8222 123.158ZM27.4536 79.8246C22.5491 79.4445 11.07 77.848 4.38932 74.503C3.19634 77.4172 0.889919 84.8422 1.20805 91.2281C3.46145 95.0293 10.1156 104.152 18.7051 110.234C20.9585 111.248 27.2945 113.351 34.6114 113.655C35.2742 111.248 37.5541 105.521 41.3717 101.871C37.5276 96.6765 29.3623 84.9942 27.4536 79.8246ZM4.38925 71.8423C0.571717 65.7604 -0.11756 52.3296 0.0149934 46.3744C2.00329 43.08 8.36584 34.8188 17.9097 28.1288C20.1366 29.6492 30.2371 32.0566 35.009 33.0703C34.6909 39.4563 39.6484 51.1892 42.1669 56.2574L27.4535 77.544C14.4103 76.0235 6.64265 73.1093 4.38925 71.8423ZM44.95 56.2573H70.7979C73.1839 51.8226 78.1944 41.2807 79.1488 34.5906C77.1605 31.1696 71.8318 22.731 66.4237 16.345H51.3126C47.4686 20.5263 39.3033 29.7251 37.3945 33.0702C37.9247 37.6316 40.1781 48.655 44.95 56.2573ZM43.7578 103.392C39.304 108.257 37.3953 113.528 36.9976 115.556C41.7695 119.813 47.3368 122.778 49.7227 123.158C52.1087 123.538 58.4712 123.918 63.2431 123.158C67.1653 122.533 70.6397 119.34 73.004 117.168C73.5162 116.697 73.9763 116.274 74.3776 115.936C73.4232 112.591 70.0033 106.433 68.4127 103.772L43.7578 103.392ZM76.7636 115.556C76.2334 113.148 74.2981 107.269 70.7987 103.012C73.1846 100.858 79.7063 93.7371 86.7051 82.4856C90.0189 82.6123 99.2711 81.8774 109.769 77.9242L112.553 96.55C106.679 105.468 102.907 107.785 94.4532 112.977C93.1778 113.76 91.7958 114.609 90.284 115.556H76.7636ZM69.5955 100.309C56.9647 101.226 46.6838 100.437 43.6577 99.9273C37.3422 92.286 32.0794 82.4797 30.2374 78.5316C34.974 71.196 41.6841 62.2302 44.4471 58.6642C50.131 57.7473 64.1828 58.2822 70.4982 58.6642C74.6032 63.8603 80.8923 75.6025 83.5238 80.8241C80.5124 88.3778 73.3957 97.5087 69.5955 100.309ZM21.3596 112.261C23.4325 112.94 28.7957 114.698 34.433 115.131C36.2403 116.827 41.2139 120.456 45.6131 122.397C51.1122 124.825 29.166 117.675 20.9725 112.134C21.0846 112.17 21.214 112.213 21.3596 112.261Z" fill="#F46565"/>
<path d="M111.898 123.118C110.005 123.118 108.271 122.771 106.698 122.078C105.125 121.358 103.791 120.384 102.698 119.158C101.605 117.931 100.818 116.558 100.338 115.038L103.738 113.638C104.458 115.558 105.525 117.038 106.938 118.078C108.378 119.091 110.058 119.598 111.978 119.598C113.151 119.598 114.178 119.411 115.058 119.038C115.938 118.664 116.618 118.144 117.098 117.478C117.605 116.784 117.858 115.984 117.858 115.078C117.858 113.824 117.498 112.838 116.778 112.118C116.085 111.371 115.058 110.811 113.698 110.438L108.218 108.758C106.058 108.091 104.405 107.038 103.258 105.598C102.111 104.158 101.538 102.504 101.538 100.638C101.538 99.011 101.925 97.5844 102.698 96.3577C103.498 95.1044 104.591 94.131 105.978 93.4377C107.391 92.7177 108.991 92.3577 110.778 92.3577C112.565 92.3577 114.178 92.6777 115.618 93.3177C117.085 93.9577 118.325 94.8244 119.338 95.9177C120.351 96.9844 121.098 98.211 121.578 99.5977L118.218 100.998C117.578 99.3177 116.618 98.051 115.338 97.1977C114.058 96.3177 112.551 95.8777 110.818 95.8777C109.751 95.8777 108.805 96.0644 107.978 96.4377C107.178 96.7844 106.551 97.3044 106.098 97.9977C105.671 98.6644 105.458 99.4644 105.458 100.398C105.458 101.491 105.805 102.464 106.498 103.318C107.191 104.171 108.245 104.824 109.658 105.278L114.658 106.758C117.005 107.478 118.778 108.504 119.978 109.838C121.178 111.171 121.778 112.824 121.778 114.798C121.778 116.424 121.351 117.864 120.498 119.118C119.671 120.371 118.511 121.358 117.018 122.078C115.551 122.771 113.845 123.118 111.898 123.118ZM123.72 122.638L134.4 92.8377H139.04L149.72 122.638H145.52L143.08 115.638H130.36L127.92 122.638H123.72ZM131.6 112.038H141.84L136.16 95.6777H137.28L131.6 112.038ZM165.184 123.118C163.078 123.118 161.131 122.744 159.344 121.998C157.584 121.224 156.038 120.144 154.704 118.758C153.398 117.371 152.384 115.744 151.664 113.878C150.944 112.011 150.584 109.971 150.584 107.758C150.584 105.518 150.944 103.464 151.664 101.598C152.384 99.731 153.398 98.1044 154.704 96.7177C156.011 95.331 157.558 94.2644 159.344 93.5177C161.131 92.7444 163.078 92.3577 165.184 92.3577C167.238 92.3577 169.078 92.7177 170.704 93.4377C172.358 94.1577 173.744 95.091 174.864 96.2377C176.011 97.3844 176.824 98.611 177.304 99.9177L173.704 101.558C173.011 99.9044 171.931 98.571 170.464 97.5577C168.998 96.5177 167.238 95.9977 165.184 95.9977C163.104 95.9977 161.251 96.491 159.624 97.4777C158.024 98.4644 156.771 99.8377 155.864 101.598C154.958 103.358 154.504 105.411 154.504 107.758C154.504 110.078 154.958 112.118 155.864 113.878C156.771 115.638 158.024 117.011 159.624 117.998C161.251 118.984 163.104 119.478 165.184 119.478C167.238 119.478 168.998 118.971 170.464 117.958C171.931 116.918 173.011 115.571 173.704 113.918L177.304 115.558C176.824 116.864 176.011 118.091 174.864 119.238C173.744 120.384 172.358 121.318 170.704 122.038C169.078 122.758 167.238 123.118 165.184 123.118ZM181.676 113.558V110.158H196.676V113.558H181.676ZM202.325 122.638V92.8377H221.205V96.4377H206.245V106.078H219.805V109.678H206.245V122.638H202.325ZM231.655 123.118C230.108 123.118 228.708 122.758 227.455 122.038C226.228 121.318 225.268 120.318 224.575 119.038C223.908 117.731 223.575 116.238 223.575 114.558V101.078H227.295V114.158C227.295 115.224 227.508 116.158 227.935 116.958C228.388 117.758 229.002 118.384 229.775 118.838C230.575 119.291 231.482 119.518 232.495 119.518C233.508 119.518 234.402 119.291 235.175 118.838C235.975 118.384 236.588 117.731 237.015 116.878C237.468 116.024 237.695 115.011 237.695 113.838V101.078H241.455V122.638H237.815V118.438L238.415 118.798C237.908 120.158 237.042 121.224 235.815 121.998C234.615 122.744 233.228 123.118 231.655 123.118ZM230.895 97.0377L234.055 90.7177H239.095L234.615 97.0377H230.895ZM255.178 122.878C253.071 122.878 251.445 122.278 250.298 121.078C249.178 119.878 248.618 118.184 248.618 115.998V104.638H244.698V101.078H245.498C246.458 101.078 247.218 100.784 247.778 100.198C248.338 99.611 248.618 98.8377 248.618 97.8777V96.1177H252.338V101.078H257.178V104.638H252.338V115.878C252.338 116.598 252.445 117.224 252.658 117.758C252.898 118.291 253.285 118.718 253.818 119.038C254.351 119.331 255.058 119.478 255.938 119.478C256.125 119.478 256.351 119.464 256.618 119.438C256.911 119.411 257.178 119.384 257.418 119.358V122.638C257.071 122.718 256.685 122.771 256.258 122.798C255.831 122.851 255.471 122.878 255.178 122.878ZM272.637 123.118C270.904 123.118 269.317 122.731 267.877 121.958C266.464 121.184 265.371 120.091 264.597 118.678L265.117 118.038V122.638H261.477V92.3577H265.197V105.718L264.637 104.798C265.437 103.518 266.531 102.504 267.917 101.758C269.304 100.984 270.891 100.598 272.677 100.598C274.704 100.598 276.517 101.091 278.117 102.078C279.744 103.064 281.024 104.411 281.957 106.118C282.891 107.798 283.357 109.718 283.357 111.878C283.357 113.984 282.891 115.891 281.957 117.598C281.024 119.304 279.744 120.651 278.117 121.638C276.517 122.624 274.691 123.118 272.637 123.118ZM272.357 119.518C273.717 119.518 274.931 119.184 275.997 118.518C277.064 117.851 277.891 116.944 278.477 115.798C279.091 114.624 279.397 113.318 279.397 111.878C279.397 110.384 279.091 109.078 278.477 107.958C277.891 106.811 277.064 105.904 275.997 105.238C274.931 104.544 273.717 104.198 272.357 104.198C270.997 104.198 269.771 104.531 268.677 105.198C267.611 105.864 266.757 106.784 266.117 107.958C265.504 109.104 265.197 110.411 265.197 111.878C265.197 113.318 265.504 114.624 266.117 115.798C266.757 116.944 267.611 117.851 268.677 118.518C269.771 119.184 270.997 119.518 272.357 119.518ZM297.675 123.118C295.595 123.118 293.715 122.638 292.035 121.678C290.355 120.691 289.022 119.344 288.035 117.638C287.049 115.931 286.555 113.998 286.555 111.838C286.555 109.678 287.035 107.758 287.995 106.078C288.982 104.398 290.315 103.064 291.995 102.078C293.675 101.091 295.569 100.598 297.675 100.598C299.755 100.598 301.635 101.091 303.315 102.078C304.995 103.038 306.315 104.358 307.275 106.038C308.262 107.718 308.755 109.651 308.755 111.838C308.755 114.024 308.249 115.971 307.235 117.678C306.222 119.358 304.875 120.691 303.195 121.678C301.542 122.638 299.702 123.118 297.675 123.118ZM297.675 119.518C299.009 119.518 300.209 119.184 301.275 118.518C302.369 117.851 303.222 116.931 303.835 115.758C304.475 114.584 304.795 113.278 304.795 111.838C304.795 110.371 304.475 109.078 303.835 107.958C303.222 106.811 302.369 105.904 301.275 105.238C300.209 104.544 299.009 104.198 297.675 104.198C296.315 104.198 295.089 104.544 293.995 105.238C292.929 105.904 292.075 106.811 291.435 107.958C290.795 109.078 290.475 110.371 290.475 111.838C290.475 113.278 290.795 114.584 291.435 115.758C292.075 116.931 292.929 117.851 293.995 118.518C295.089 119.184 296.315 119.518 297.675 119.518ZM312.807 122.638V92.3577H316.527V122.638H312.807Z" fill="#1F1F1F"/>
</svg>
