<svg width="12" height="13" viewBox="0 0 12 13" fill="none" xmlns="http://www.w3.org/2000/svg">
<path d="M9.5249 2.95503C9.0665 2.49199 8.52049 2.12486 7.91872 1.87506C7.31695 1.62525 6.67146 1.49776 6.0199 1.50003C3.2899 1.50003 1.0649 3.72503 1.0649 6.45503C1.0649 7.33003 1.2949 8.18003 1.7249 8.93003L1.0249 11.5L3.6499 10.81C4.3749 11.205 5.1899 11.415 6.0199 11.415C8.7499 11.415 10.9749 9.19003 10.9749 6.46003C10.9749 5.13503 10.4599 3.89003 9.5249 2.95503ZM6.0199 10.575C5.2799 10.575 4.5549 10.375 3.9199 10L3.7699 9.91003L2.2099 10.32L2.6249 8.80003L2.5249 8.64503C2.11378 7.98851 1.89547 7.22965 1.8949 6.45503C1.8949 4.18503 3.7449 2.33503 6.0149 2.33503C7.1149 2.33503 8.1499 2.76503 8.9249 3.54503C9.30864 3.92701 9.61275 4.38136 9.8196 4.88174C10.0264 5.38212 10.1319 5.91858 10.1299 6.46003C10.1399 8.73003 8.2899 10.575 6.0199 10.575ZM8.2799 7.49503C8.1549 7.43503 7.5449 7.13503 7.4349 7.09003C7.3199 7.05003 7.2399 7.03003 7.1549 7.15003C7.0699 7.27503 6.8349 7.55503 6.7649 7.63503C6.6949 7.72003 6.6199 7.73003 6.4949 7.66503C6.3699 7.60503 5.9699 7.47003 5.4999 7.05003C5.1299 6.72003 4.8849 6.31503 4.8099 6.19003C4.7399 6.06503 4.7999 6.00003 4.8649 5.93503C4.9199 5.88003 4.9899 5.79003 5.0499 5.72003C5.1099 5.65003 5.1349 5.59503 5.1749 5.51503C5.2149 5.43003 5.1949 5.36003 5.1649 5.30003C5.1349 5.24003 4.8849 4.63003 4.7849 4.38003C4.6849 4.14003 4.5799 4.17003 4.5049 4.16503H4.2649C4.1799 4.16503 4.0499 4.19503 3.9349 4.32003C3.8249 4.44503 3.5049 4.74503 3.5049 5.35503C3.5049 5.96503 3.9499 6.55503 4.0099 6.63503C4.0699 6.72003 4.8849 7.97003 6.1249 8.50503C6.4199 8.63503 6.6499 8.71003 6.8299 8.76503C7.1249 8.86003 7.3949 8.84503 7.6099 8.81503C7.8499 8.78003 8.3449 8.51503 8.4449 8.22503C8.5499 7.93503 8.5499 7.69003 8.5149 7.63503C8.4799 7.58003 8.4049 7.55503 8.2799 7.49503Z" fill="#63667E"/>
</svg>
